g ATMachine
v -0.375 0.375 0.46875
v -0.75 1 0.46875
v -0.25 1.25 0.46875
v -0.25 0.375 0.46875
v -0.75 1 0.46875
v -0.75 1 -0.40625
v -0.25 1.25 -0.40625
v -0.25 1.25 0.46875
v -0.75 1 -0.40625
v -0.375 0.375 -0.40625
v -0.25 0.375 -0.40625
v -0.25 1.25 -0.40625
v -0.375 0.375 -0.40625
v -0.375 0.375 0.46875
v -0.25 0.375 0.46875
v -0.25 0.375 -0.40625
v -0.375 0.375 -0.40625
v -0.75 1 -0.40625
v -0.75 1 0.46875
v -0.375 0.375 0.46875
v -0.25 2.25 0.53125
v -0.25 2.625 0.53125
v -0.125 2.625 0.53125
v -0.125 2.25 0.53125
v -0.25 2.625 0.53125
v -0.25 2.625 -0.46875
v -0.125 2.625 -0.46875
v -0.125 2.625 0.53125
v -0.25 2.625 -0.46875
v -0.25 2.25 -0.46875
v -0.125 2.25 -0.46875
v -0.125 2.625 -0.46875
v -0.25 2.25 -0.46875
v -0.25 2.25 0.53125
v -0.125 2.25 0.53125
v -0.125 2.25 -0.46875
v -0.125 2.25 0.53125
v -0.125 2.625 0.53125
v -0.125 2.625 -0.46875
v -0.125 2.25 -0.46875
v -0.25 2.25 -0.46875
v -0.25 2.625 -0.46875
v -0.25 2.625 0.53125
v -0.25 2.25 0.53125
v -0.25 2.25 0.84375
v -0.25 2.25 -0.78125
v 0.5 2.25 -0.78125
v 0.5 2.25 0.84375
v -0.25 0 -0.78125
v -0.25 0 0.84375
v 0.5 0 0.84375
v 0.5 0 -0.78125
v -0.25 1.25 -0.40625
v -0.25 2.25 -0.78125
v -0.25 2.25 0.84375
v -0.25 1.25 0.46875
v -0.25 0.375 -0.40625
v -0.25 0.375 0.46875
v -0.25 0 -0.78125
v -0.25 0 0.84375
v -0.25 0 0.84375
v -0.25 2.25 0.84375
v 0.5 2.25 0.84375
v 0.5 0 0.84375
v 0.5 0 0.84375
v 0.5 2.25 0.84375
v 0.5 2.25 -0.78125
v 0.5 0 -0.78125
v -0.25 2.25 -0.78125
v -0.25 0 -0.78125
v 0.5 0 -0.78125
v 0.5 2.25 -0.78125
vt 0.6093751 0.859376
vt 0.65625 0.9375006
vt 0.5937502 0.9687505
vt 0.5937502 0.859376
vt 0.7656246 0.9375002
vt 0.6562502 0.9375003
vt 0.6562501 1
vt 0.7656247 1
vt 0.65625 0.9375001
vt 0.6093752 0.8593761
vt 0.5937503 0.8593761
vt 0.5937502 0.9687497
vt 0.65625 0.8515625
vt 0.7656245 0.8515625
vt 0.7656245 0.8359375
vt 0.65625 0.8359375
vt 0.65625 0.8515625
vt 0.65625 0.9375006
vt 0.7656248 0.9375006
vt 0.7656248 0.8515625
vt 0.140625 0.5625002
vt 0.140625 0.609375
vt 0.1562499 0.609375
vt 0.1562499 0.5625002
vt 0.015625 0.625
vt 0.1406245 0.6250001
vt 0.1406245 0.6093752
vt 0.015625 0.6093751
vt 1.490116E-07 0.5625007
vt 1.192093E-07 0.6093752
vt 0.015625 0.6093751
vt 0.01562503 0.5625007
vt 0.01562503 0.5625007
vt 0.1406245 0.5625007
vt 0.1406245 0.5468758
vt 0.01562503 0.5468758
vt 0.01562437 0.5000013
vt 0.01562437 0.5468757
vt 0.1406237 0.5468757
vt 0.1406237 0.5000013
vt 0.01562506 0.5625008
vt 0.01562506 0.6093755
vt 0.1406247 0.6093755
vt 0.1406247 0.5625007
vt 0.4999999 0.9062499
vt 0.296876 0.9062498
vt 0.296876 1
vt 0.5 0.9999999
vt 0.2968737 0.6250035
vt 0.4999978 0.6250035
vt 0.4999978 0.5312538
vt 0.2968737 0.5312538
vt 0.3437486 0.7812528
vt 0.2968737 0.9062523
vt 0.4999982 0.9062523
vt 0.4531233 0.7812528
vt 0.3437486 0.6718783
vt 0.4531233 0.6718783
vt 0.2968737 0.6250035
vt 0.4999982 0.6250035
vt 0.5 0.625
vt 0.5000001 0.9062488
vt 0.5937498 0.9062489
vt 0.5937497 0.6249999
vt 2.931933E-09 0.6250036
vt 2.443441E-09 0.9062501
vt 0.203124 0.90625
vt 0.203124 0.6250036
vt 0.2968736 0.90625
vt 0.2968737 0.6250035
vt 0.203124 0.6250035
vt 0.2031238 0.90625
vn 0 0 1
vn 0 0 1
vn 0 0 1
vn 0 0 1
vn -0.4472136 0.8944272 0
vn -0.4472136 0.8944272 0
vn -0.4472136 0.8944272 0
vn -0.4472136 0.8944272 0
vn 0 0 -1
vn 0 0 -1
vn 0 0 -1
vn 0 0 -1
vn 0 -1 0
vn 0 -1 0
vn 0 -1 0
vn 0 -1 0
vn -0.8574929 -0.5144958 0
vn -0.8574929 -0.5144958 0
vn -0.8574929 -0.5144958 0
vn -0.8574929 -0.5144958 0
vn 0 0 1
vn 0 0 1
vn 0 0 1
vn 0 0 1
vn 0 1 0
vn 0 1 0
vn 0 1 0
vn 0 1 0
vn 0 0 -1
vn 0 0 -1
vn 0 0 -1
vn 0 0 -1
vn 0 -1 0
vn 0 -1 0
vn 0 -1 0
vn 0 -1 0
vn 1 0 0
vn 1 0 0
vn 1 0 0
vn 1 0 0
vn -1 0 0
vn -1 0 0
vn -1 0 0
vn -1 0 0
vn 0 1 0
vn 0 1 0
vn 0 1 0
vn 0 1 0
vn 0 -1 0
vn 0 -1 0
vn 0.9486833 -0.3162278 0
vn 0.9486833 -0.3162278 0
vn -1 0 0
vn -1 0 0
vn -1 0 0
vn -1 0 0
vn -1 0 0
vn -1 0 0
vn -1 0 0
vn -1 0 0
vn 0 0 1
vn 0 0 1
vn 0 0 1
vn 0 0 1
vn 0.9486833 -0.3162278 0
vn 1 0 0
vn 1 0 0
vn 0.9486833 -0.3162278 0
vn 0 0 -1
vn 0 0 -1
vn 0 0 -1
vn 0 0 -1
g ATMachine_0
f 3/3/3 2/2/2 1/1/1
f 4/4/4 3/3/3 1/1/1
f 7/7/7 6/6/6 5/5/5
f 8/8/8 7/7/7 5/5/5
f 11/11/11 10/10/10 9/9/9
f 12/12/12 11/11/11 9/9/9
f 15/15/15 14/14/14 13/13/13
f 16/16/16 15/15/15 13/13/13
f 19/19/19 18/18/18 17/17/17
f 20/20/20 19/19/19 17/17/17
f 23/23/23 22/22/22 21/21/21
f 24/24/24 23/23/23 21/21/21
f 27/27/27 26/26/26 25/25/25
f 28/28/28 27/27/27 25/25/25
f 31/31/31 30/30/30 29/29/29
f 32/32/32 31/31/31 29/29/29
f 35/35/35 34/34/34 33/33/33
f 36/36/36 35/35/35 33/33/33
f 39/39/39 38/38/38 37/37/37
f 40/40/40 39/39/39 37/37/37
f 43/43/43 42/42/42 41/41/41
f 44/44/44 43/43/43 41/41/41
f 47/47/47 46/46/46 45/45/45
f 48/48/48 47/47/47 45/45/45
f 51/51/51 50/50/50 49/49/49
f 52/52/52 51/51/51 49/49/49
f 55/55/55 54/54/54 53/53/53
f 56/56/56 55/55/55 53/53/53
f 56/56/56 53/53/53 57/57/57
f 58/58/58 56/56/56 57/57/57
f 58/58/58 57/57/57 59/59/59
f 53/53/53 54/54/54 59/59/59
f 57/57/57 53/53/53 59/59/59
f 60/60/60 58/58/58 59/59/59
f 60/60/60 55/55/55 56/56/56
f 58/58/58 60/60/60 56/56/56
f 63/63/63 62/62/62 61/61/61
f 64/64/64 63/63/63 61/61/61
f 67/67/67 66/66/66 65/65/65
f 68/68/68 67/67/67 65/65/65
f 71/71/71 70/70/70 69/69/69
f 72/72/72 71/71/71 69/69/69
