g GnomePlane
v -0.5 -1.110223E-16 0.5
v -0.5 0 0
v 0 0 0
v 0 -1.110223E-16 0.5
v 0 1.110223E-16 -0.5
v -0.5 1.110223E-16 -0.5
v 0 -1.110223E-16 0.5
v 0 0 0
v 0.5 0 0
v 0.5 -1.110223E-16 0.5
v 0.5 1.110223E-16 -0.5
v 0 1.110223E-16 -0.5
vt 0 0.5
vt 0 0.75
vt 1 0.75
vt 1 0.5
vt 1 1
vt 0 1
vt 0 0
vt 0 0.25
vt 1 0.25
vt 1 0
vt 1 0.5
vt 0 0.5
vn 0 1 0
vn 0 1 0
vn 0 1 0
vn 0 1 0
vn 0 1 0
vn 0 1 0
vn 0 1 0
vn 0 1 0
vn 0 1 0
vn 0 1 0
vn 0 1 0
vn 0 1 0
g GnomePlane_0
f 3/3/3 2/2/2 1/1/1
f 4/4/4 3/3/3 1/1/1
f 3/3/3 5/5/5 2/2/2
f 5/5/5 6/6/6 2/2/2
f 9/9/9 8/8/8 7/7/7
f 10/10/10 9/9/9 7/7/7
f 9/9/9 11/11/11 8/8/8
f 11/11/11 12/12/12 8/8/8
