g HumanCharacter:Head
v 0.02916 0.0114839 0.03250369
v -0.02916 0.0114839 0.03250369
v 0.032936 0.0791567 0.03575406
v -0.03713599 0.0791567 0.03575406
v -0.03336 0.10604 0.02896078
v 0.02916 0.10604 0.02896078
v -0.025128 0.1168199 0.01592681
v -0.025128 0.1168199 0
v 0.021528 0.1168199 0.01592681
v 0.021528 0.1168199 0
v -0.025128 0.1168199 -0.01592681
v 0.021528 0.1168199 -0.01592681
v -0.03713599 0.0791567 -0.03575406
v -0.02916 0.0114839 -0.03250369
v 0.032936 0.0791567 -0.03575406
v 0.02916 0.0114839 -0.03250369
v 0.02916 0.10604 -0.02896078
v -0.03336 0.10604 -0.02896078
v -0.026244 0.001583922 0
v -0.026244 0.001583922 0.02925332
v 0.026244 0.001583922 0
v 0.026244 0.001583922 0.02925332
v 0.026244 0.001583922 -0.02925332
v -0.026244 0.001583922 -0.02925332
v 0.02916 0.0114839 0
v 0.02916 0.0114839 0.03250369
v 0.032936 0.0791567 0
v 0.032936 0.0791567 0.03575406
v 0.02916 0.10604 0.02896078
v 0.02916 0.10604 0
v 0.02916 0.0114839 -0.03250369
v 0.032936 0.0791567 -0.03575406
v 0.02916 0.10604 -0.02896078
v -0.02916 0.0114839 0.03250369
v -0.02916 0.0114839 0
v -0.03713599 0.0791567 0.03575406
v -0.050136 0.0791567 0
v -0.03336 0.10604 0.02896078
v -0.04636 0.10604 0
v -0.03336 0.10604 -0.02896078
v -0.03713599 0.0791567 -0.03575406
v -0.02916 0.0114839 -0.03250369
v -0.03336 0.10604 0.02896078
v -0.025128 0.1168199 0.01592681
v 0.02916 0.10604 0.02896078
v 0.021528 0.1168199 0.01592681
v 0.02916 0.10604 0.02896078
v 0.021528 0.1168199 0.01592681
v 0.02916 0.10604 0
v 0.021528 0.1168199 0
v 0.021528 0.1168199 -0.01592681
v 0.02916 0.10604 -0.02896078
v -0.03336 0.10604 -0.02896078
v 0.02916 0.10604 -0.02896078
v -0.025128 0.1168199 -0.01592681
v 0.021528 0.1168199 -0.01592681
v -0.03336 0.10604 0.02896078
v -0.04636 0.10604 0
v -0.025128 0.1168199 0.01592681
v -0.025128 0.1168199 0
v -0.025128 0.1168199 -0.01592681
v -0.03336 0.10604 -0.02896078
v -0.02916 0.0114839 -0.03250369
v -0.026244 0.001583922 -0.02925332
v 0.02916 0.0114839 -0.03250369
v 0.026244 0.001583922 -0.02925332
v 0.02916 0.0114839 0.03250369
v 0.02916 0.0114839 0
v 0.026244 0.001583922 0.02925332
v 0.026244 0.001583922 0
v 0.026244 0.001583922 -0.02925332
v 0.02916 0.0114839 -0.03250369
v 0.02916 0.0114839 0.03250369
v 0.026244 0.001583922 0.02925332
v -0.02916 0.0114839 0.03250369
v -0.026244 0.001583922 0.02925332
v -0.02916 0.0114839 0.03250369
v -0.026244 0.001583922 0.02925332
v -0.02916 0.0114839 0
v -0.026244 0.001583922 0
v -0.026244 0.001583922 -0.02925332
v -0.02916 0.0114839 -0.03250369
vt 0.625 0
vt 0.375 0
vt 0.625 0.1612486
vt 0.375 0.1612486
vt 0.375 0.25
vt 0.625 0.25
vt 0.375 0.25
vt 0.375 0.375
vt 0.625 0.25
vt 0.625 0.375
vt 0.375 0.5
vt 0.625 0.5
vt 0.375 0.5887514
vt 0.375 0.75
vt 0.625 0.5887514
vt 0.625 0.75
vt 0.625 0.5
vt 0.375 0.5
vt 0.375 0.875
vt 0.375 1
vt 0.625 0.875
vt 0.625 1
vt 0.625 0.75
vt 0.375 0.75
vt 0.75 0
vt 0.625 0
vt 0.75 0.1612486
vt 0.625 0.1612486
vt 0.625 0.25
vt 0.75 0.25
vt 0.875 0
vt 0.875 0.1612486
vt 0.875 0.25
vt 0.375 0
vt 0.25 0
vt 0.375 0.1612486
vt 0.25 0.1612486
vt 0.375 0.25
vt 0.25 0.25
vt 0.125 0.25
vt 0.125 0.1612486
vt 0.125 0
vt 0.375 0.25
vt 0.375 0.25
vt 0.625 0.25
vt 0.625 0.25
vt 0.625 0.25
vt 0.625 0.25
vt 0.625 0.375
vt 0.625 0.375
vt 0.625 0.5
vt 0.625 0.5
vt 0.375 0.5
vt 0.625 0.5
vt 0.375 0.5
vt 0.625 0.5
vt 0.375 0.25
vt 0.375 0.375
vt 0.375 0.25
vt 0.375 0.375
vt 0.375 0.5
vt 0.375 0.5
vt 0.375 0.75
vt 0.375 0.75
vt 0.625 0.75
vt 0.625 0.75
vt 0.625 1
vt 0.625 0.875
vt 0.625 1
vt 0.625 0.875
vt 0.625 0.75
vt 0.625 0.75
vt 0.625 1
vt 0.625 1
vt 0.375 1
vt 0.375 1
vt 0.375 1
vt 0.375 1
vt 0.375 0.875
vt 0.375 0.875
vt 0.375 0.75
vt 0.375 0.75
vn 0 -0.04797537 0.9988486
vn 0 -0.04797536 0.9988486
vn 0 0.0361159 0.9993476
vn 0 0.03864538 0.999253
vn 0 0.2449942 0.9695246
vn 0 0.2449942 0.9695246
vn 0 1 0
vn 0 1 0
vn 0 1 0
vn 0 1 0
vn 0 1 0
vn 0 1 0
vn 0 0.03864538 -0.999253
vn 0 -0.04797537 -0.9988486
vn 0 0.03611589 -0.9993476
vn 0 -0.04797536 -0.9988486
vn 0 0.2449942 -0.9695246
vn 0 0.2449942 -0.9695246
vn 0 -1 0
vn 0 -1 0
vn 0 -1 0
vn 0 -1 0
vn 0 -1 0
vn 0 -1 0
vn 0.998447 -0.05571121 0
vn 0.998447 -0.0557112 0
vn 0.9999979 -0.002103797 0
vn 0.9999731 -0.007342095 0
vn 0.9902793 0.1390937 0
vn 0.9902793 0.1390937 0
vn 0.998447 -0.05571122 0
vn 0.9999731 -0.007342103 0
vn 0.9902793 0.1390937 0
vn -0.9604695 -0.2098486 0.1829259
vn -0.9769539 -0.2134502 0
vn -0.9655383 -0.1119625 0.2349477
vn -0.9946924 -0.1028933 0
vn -0.9136407 0.1747071 0.3670667
vn -0.9822038 0.1878177 0
vn -0.9136409 0.174707 -0.3670667
vn -0.9655381 -0.1119625 -0.2349476
vn -0.9604695 -0.2098486 -0.1829259
vn 0 0.7705923 0.6373284
vn 0 0.7705923 0.6373284
vn 0 0.7705923 0.6373284
vn 0 0.7705923 0.6373284
vn 0.8161592 0.5778271 0
vn 0.8161592 0.577827 0
vn 0.8161592 0.5778271 0
vn 0.8161592 0.5778271 0
vn 0.8161592 0.5778271 0
vn 0.8161592 0.5778271 0
vn 0 0.7705924 -0.6373283
vn 0 0.7705924 -0.6373283
vn 0 0.7705924 -0.6373283
vn 0 0.7705924 -0.6373283
vn -0.5375478 0.8287377 0.1556802
vn -0.5441827 0.8389668 0
vn -0.5375478 0.8287377 0.1556802
vn -0.5441827 0.8389668 0
vn -0.5375477 0.8287376 -0.1556804
vn -0.5375477 0.8287376 -0.1556804
vn 0 -0.3119382 -0.9501024
vn 0 -0.3119383 -0.9501024
vn 0 -0.3119382 -0.9501024
vn 0 -0.3119383 -0.9501024
vn 0.9592542 -0.2825446 0
vn 0.9592542 -0.2825446 0
vn 0.9592542 -0.2825446 0
vn 0.9592542 -0.2825446 0
vn 0.9592542 -0.2825445 0
vn 0.9592542 -0.2825445 0
vn 0 -0.3119382 0.9501024
vn 0 -0.3119383 0.9501024
vn 0 -0.3119382 0.9501024
vn 0 -0.3119383 0.9501024
vn -0.9592542 -0.2825445 0
vn -0.9592542 -0.2825445 0
vn -0.9592542 -0.2825446 0
vn -0.9592542 -0.2825446 0
vn -0.9592542 -0.2825446 0
vn -0.9592542 -0.2825446 0
g HumanCharacter:Head_0
f 3/3/3 2/2/2 1/1/1
f 3/3/3 4/4/4 2/2/2
f 3/3/3 5/5/5 4/4/4
f 3/3/3 6/6/6 5/5/5
f 9/9/9 8/8/8 7/7/7
f 9/9/9 10/10/10 8/8/8
f 10/10/10 11/11/11 8/8/8
f 10/10/10 12/12/12 11/11/11
f 15/15/15 14/14/14 13/13/13
f 15/15/15 16/16/16 14/14/14
f 17/17/17 15/15/15 13/13/13
f 17/17/17 13/13/13 18/18/18
f 21/21/21 20/20/20 19/19/19
f 21/21/21 22/22/22 20/20/20
f 23/23/23 21/21/21 19/19/19
f 23/23/23 19/19/19 24/24/24
f 27/27/27 26/26/26 25/25/25
f 27/27/27 28/28/28 26/26/26
f 27/27/27 29/29/29 28/28/28
f 27/27/27 30/30/30 29/29/29
f 31/31/31 27/27/27 25/25/25
f 31/31/31 32/32/32 27/27/27
f 27/27/27 33/33/33 30/30/30
f 27/27/27 32/32/32 33/33/33
f 36/36/36 35/35/35 34/34/34
f 36/36/36 37/37/37 35/35/35
f 38/38/38 37/37/37 36/36/36
f 38/38/38 39/39/39 37/37/37
f 37/37/37 39/39/39 40/40/40
f 37/37/37 40/40/40 41/41/41
f 35/35/35 37/37/37 41/41/41
f 35/35/35 41/41/41 42/42/42
f 45/45/45 44/44/44 43/43/43
f 45/45/45 46/46/46 44/44/44
f 49/49/49 48/48/48 47/47/47
f 49/49/49 50/50/50 48/48/48
f 49/49/49 51/51/51 50/50/50
f 49/49/49 52/52/52 51/51/51
f 55/55/55 54/54/54 53/53/53
f 55/55/55 56/56/56 54/54/54
f 59/59/59 58/58/58 57/57/57
f 59/59/59 60/60/60 58/58/58
f 58/58/58 60/60/60 61/61/61
f 58/58/58 61/61/61 62/62/62
f 65/65/65 64/64/64 63/63/63
f 65/65/65 66/66/66 64/64/64
f 69/69/69 68/68/68 67/67/67
f 69/69/69 70/70/70 68/68/68
f 68/68/68 70/70/70 71/71/71
f 68/68/68 71/71/71 72/72/72
f 75/75/75 74/74/74 73/73/73
f 75/75/75 76/76/76 74/74/74
f 79/79/79 78/78/78 77/77/77
f 79/79/79 80/80/80 78/78/78
f 79/79/79 81/81/81 80/80/80
f 79/79/79 82/82/82 81/81/81
