g L_LowerSpeaker
v 0.7264596 -1.679518 -2.467842
v 0.6640032 -1.760774 -2.486145
v 0.7181619 -1.655798 -2.499757
v 0.6474078 -1.713333 -2.549974
v 0.7181619 -1.655798 -2.499757
v 0.6474078 -1.713333 -2.549974
v 0.7206355 -1.623318 -2.524026
v 0.6523557 -1.648374 -2.598513
v 0.7206355 -1.623318 -2.524026
v 0.6523557 -1.648374 -2.598513
v 0.7335045 -1.587024 -2.536955
v 0.6780936 -1.575786 -2.624371
v 0.7335045 -1.587024 -2.536955
v 0.6780936 -1.575786 -2.624371
v 0.7548091 -1.552441 -2.536576
v 0.7207029 -1.506619 -2.623613
v 0.7548091 -1.552441 -2.536576
v 0.7207029 -1.506619 -2.623613
v 0.7813062 -1.524833 -2.522946
v 0.7736972 -1.451404 -2.596354
v 0.7813062 -1.524833 -2.522946
v 0.7736972 -1.451404 -2.596354
v 0.8089619 -1.508405 -2.49814
v 0.8290085 -1.418547 -2.546743
v 0.8089619 -1.508405 -2.49814
v 0.8290085 -1.418547 -2.546743
v 0.8335657 -1.505656 -2.465936
v 0.878216 -1.41305 -2.482334
v 0.8335657 -1.505656 -2.465936
v 0.878216 -1.41305 -2.482334
v 0.8513722 -1.517006 -2.431235
v 0.9138279 -1.43575 -2.412931
v 0.8513722 -1.517006 -2.431235
v 0.9138279 -1.43575 -2.412931
v 0.85967 -1.540726 -2.399321
v 0.930424 -1.48319 -2.349103
v 0.85967 -1.540726 -2.399321
v 0.930424 -1.48319 -2.349103
v 0.8571956 -1.573205 -2.375051
v 0.9254761 -1.548149 -2.300564
v 0.8571956 -1.573205 -2.375051
v 0.9254761 -1.548149 -2.300564
v 0.8443267 -1.6095 -2.362122
v 0.8997382 -1.620738 -2.274706
v 0.8443267 -1.6095 -2.362122
v 0.8997382 -1.620738 -2.274706
v 0.8230221 -1.644083 -2.362501
v 0.8571289 -1.689904 -2.275464
v 0.8230221 -1.644083 -2.362501
v 0.8571289 -1.689904 -2.275464
v 0.7965249 -1.67169 -2.376131
v 0.8041345 -1.745119 -2.302723
v 0.7965249 -1.67169 -2.376131
v 0.8041345 -1.745119 -2.302723
v 0.7688692 -1.688119 -2.400936
v 0.7488232 -1.777976 -2.352334
v 0.7688692 -1.688119 -2.400936
v 0.7488232 -1.777976 -2.352334
v 0.7442655 -1.690868 -2.433141
v 0.6996158 -1.783473 -2.416743
v 0.7442655 -1.690868 -2.433141
v 0.6996158 -1.783473 -2.416743
v 0.7264596 -1.679518 -2.467842
v 0.6640032 -1.760774 -2.486145
v 0.6640032 -1.760774 -2.486145
v 0.6015475 -1.84203 -2.504448
v 0.6474078 -1.713333 -2.549974
v 0.5766537 -1.77087 -2.600192
v 0.6474078 -1.713333 -2.549974
v 0.5766537 -1.77087 -2.600192
v 0.6523557 -1.648374 -2.598513
v 0.5840753 -1.673431 -2.673
v 0.6523557 -1.648374 -2.598513
v 0.5840753 -1.673431 -2.673
v 0.6780936 -1.575786 -2.624371
v 0.6226821 -1.564548 -2.711787
v 0.6780936 -1.575786 -2.624371
v 0.6226821 -1.564548 -2.711787
v 0.7207029 -1.506619 -2.623613
v 0.686596 -1.460798 -2.71065
v 0.7207029 -1.506619 -2.623613
v 0.686596 -1.460798 -2.71065
v 0.7736972 -1.451404 -2.596354
v 0.7660875 -1.377976 -2.669761
v 0.7736972 -1.451404 -2.596354
v 0.7660875 -1.377976 -2.669761
v 0.8290085 -1.418547 -2.546743
v 0.8490546 -1.32869 -2.595345
v 0.8290085 -1.418547 -2.546743
v 0.8490546 -1.32869 -2.595345
v 0.878216 -1.41305 -2.482334
v 0.9228657 -1.320444 -2.498731
v 0.878216 -1.41305 -2.482334
v 0.9228657 -1.320444 -2.498731
v 0.9138279 -1.43575 -2.412931
v 0.9762843 -1.354493 -2.394628
v 0.9138279 -1.43575 -2.412931
v 0.9762843 -1.354493 -2.394628
v 0.930424 -1.48319 -2.349103
v 1.001178 -1.425654 -2.298884
v 0.930424 -1.48319 -2.349103
v 1.001178 -1.425654 -2.298884
v 0.9254761 -1.548149 -2.300564
v 0.9937564 -1.523093 -2.226077
v 0.9254761 -1.548149 -2.300564
v 0.9937564 -1.523093 -2.226077
v 0.8997382 -1.620738 -2.274706
v 0.9551497 -1.631975 -2.187289
v 0.8997382 -1.620738 -2.274706
v 0.9551497 -1.631975 -2.187289
v 0.8571289 -1.689904 -2.275464
v 0.8912351 -1.735725 -2.188426
v 0.8571289 -1.689904 -2.275464
v 0.8912351 -1.735725 -2.188426
v 0.8041345 -1.745119 -2.302723
v 0.8117436 -1.818548 -2.229315
v 0.8041345 -1.745119 -2.302723
v 0.8117436 -1.818548 -2.229315
v 0.7488232 -1.777976 -2.352334
v 0.7287772 -1.867833 -2.303732
v 0.7488232 -1.777976 -2.352334
v 0.7287772 -1.867833 -2.303732
v 0.6996158 -1.783473 -2.416743
v 0.6549655 -1.876079 -2.400346
v 0.6996158 -1.783473 -2.416743
v 0.6549655 -1.876079 -2.400346
v 0.6640032 -1.760774 -2.486145
v 0.6015475 -1.84203 -2.504448
v 0.6015475 -1.84203 -2.504448
v 0.5390912 -1.923286 -2.522752
v 0.5766537 -1.77087 -2.600192
v 0.5058997 -1.828405 -2.65041
v 0.5766537 -1.77087 -2.600192
v 0.5058997 -1.828405 -2.65041
v 0.5840753 -1.673431 -2.673
v 0.5157949 -1.698487 -2.747487
v 0.5840753 -1.673431 -2.673
v 0.5157949 -1.698487 -2.747487
v 0.6226821 -1.564548 -2.711787
v 0.5672706 -1.55331 -2.799205
v 0.6226821 -1.564548 -2.711787
v 0.5672706 -1.55331 -2.799205
v 0.686596 -1.460798 -2.71065
v 0.6524898 -1.414977 -2.797688
v 0.686596 -1.460798 -2.71065
v 0.6524898 -1.414977 -2.797688
v 0.7660875 -1.377976 -2.669761
v 0.7584785 -1.304548 -2.743169
v 0.7660875 -1.377976 -2.669761
v 0.7584785 -1.304548 -2.743169
v 0.8490546 -1.32869 -2.595345
v 0.8691006 -1.238833 -2.643948
v 0.8490546 -1.32869 -2.595345
v 0.8691006 -1.238833 -2.643948
v 0.9228657 -1.320444 -2.498731
v 0.9675161 -1.227839 -2.515129
v 0.9228657 -1.320444 -2.498731
v 0.9675161 -1.227839 -2.515129
v 0.9762843 -1.354493 -2.394628
v 1.038741 -1.273238 -2.376324
v 0.9762843 -1.354493 -2.394628
v 1.038741 -1.273238 -2.376324
v 1.001178 -1.425654 -2.298884
v 1.071931 -1.368118 -2.248667
v 1.001178 -1.425654 -2.298884
v 1.071931 -1.368118 -2.248667
v 0.9937564 -1.523093 -2.226077
v 1.062036 -1.498037 -2.151589
v 0.9937564 -1.523093 -2.226077
v 1.062036 -1.498037 -2.151589
v 0.9551497 -1.631975 -2.187289
v 1.010561 -1.643213 -2.099873
v 0.9551497 -1.631975 -2.187289
v 1.010561 -1.643213 -2.099873
v 0.8912351 -1.735725 -2.188426
v 0.9253418 -1.781546 -2.101388
v 0.8912351 -1.735725 -2.188426
v 0.9253418 -1.781546 -2.101388
v 0.8117436 -1.818548 -2.229315
v 0.8193533 -1.891976 -2.155908
v 0.8117436 -1.818548 -2.229315
v 0.8193533 -1.891976 -2.155908
v 0.7287772 -1.867833 -2.303732
v 0.7087306 -1.95769 -2.255129
v 0.7287772 -1.867833 -2.303732
v 0.7087306 -1.95769 -2.255129
v 0.6549655 -1.876079 -2.400346
v 0.6103157 -1.968685 -2.383948
v 0.6549655 -1.876079 -2.400346
v 0.6103157 -1.968685 -2.383948
v 0.6015475 -1.84203 -2.504448
v 0.5390912 -1.923286 -2.522752
v 0.7181619 -1.655798 -2.499757
v 0.7889159 -1.598262 -2.449538
v 0.7264596 -1.679518 -2.467842
v 0.7206355 -1.623318 -2.524026
v 0.7889159 -1.598262 -2.449538
v 0.7181619 -1.655798 -2.499757
v 0.7335045 -1.587024 -2.536955
v 0.7889159 -1.598262 -2.449538
v 0.7206355 -1.623318 -2.524026
v 0.7548091 -1.552441 -2.536576
v 0.7889159 -1.598262 -2.449538
v 0.7335045 -1.587024 -2.536955
v 0.7813062 -1.524833 -2.522946
v 0.7889159 -1.598262 -2.449538
v 0.7548091 -1.552441 -2.536576
v 0.8089619 -1.508405 -2.49814
v 0.7889159 -1.598262 -2.449538
v 0.7813062 -1.524833 -2.522946
v 0.8335657 -1.505656 -2.465936
v 0.7889159 -1.598262 -2.449538
v 0.8089619 -1.508405 -2.49814
v 0.8513722 -1.517006 -2.431235
v 0.7889159 -1.598262 -2.449538
v 0.8335657 -1.505656 -2.465936
v 0.85967 -1.540726 -2.399321
v 0.7889159 -1.598262 -2.449538
v 0.8513722 -1.517006 -2.431235
v 0.8571956 -1.573205 -2.375051
v 0.7889159 -1.598262 -2.449538
v 0.85967 -1.540726 -2.399321
v 0.8443267 -1.6095 -2.362122
v 0.7889159 -1.598262 -2.449538
v 0.8571956 -1.573205 -2.375051
v 0.8230221 -1.644083 -2.362501
v 0.7889159 -1.598262 -2.449538
v 0.8443267 -1.6095 -2.362122
v 0.7965249 -1.67169 -2.376131
v 0.7889159 -1.598262 -2.449538
v 0.8230221 -1.644083 -2.362501
v 0.7688692 -1.688119 -2.400936
v 0.7889159 -1.598262 -2.449538
v 0.7965249 -1.67169 -2.376131
v 0.7442655 -1.690868 -2.433141
v 0.7889159 -1.598262 -2.449538
v 0.7688692 -1.688119 -2.400936
v 0.7264596 -1.679518 -2.467842
v 0.7889159 -1.598262 -2.449538
v 0.7442655 -1.690868 -2.433141
vt 0 0
vt 0 1
vt 1 0
vt 1 1
vt 0 0
vt 0 1
vt 1 0
vt 1 1
vt 0 0
vt 0 1
vt 1 0
vt 1 1
vt 0 0
vt 0 1
vt 1 0
vt 1 1
vt 0 0
vt 0 1
vt 1 0
vt 1 1
vt 0 0
vt 0 1
vt 1 0
vt 1 1
vt 0 0
vt 0 1
vt 1 0
vt 1 1
vt 0 0
vt 0 1
vt 1 0
vt 1 1
vt 0 0
vt 0 1
vt 1 0
vt 1 1
vt 0 0
vt 0 1
vt 1 0
vt 1 1
vt 0 0
vt 0 1
vt 1 0
vt 1 1
vt 0 0
vt 0 1
vt 1 0
vt 1 1
vt 0 0
vt 0 1
vt 1 0
vt 1 1
vt 0 0
vt 0 1
vt 1 0
vt 1 1
vt 0 0
vt 0 1
vt 1 0
vt 1 1
vt 0 0
vt 0 1
vt 1 0
vt 1 1
vt 0 0
vt 0 1
vt 1 0
vt 1 1
vt 0 0
vt 0 1
vt 1 0
vt 1 1
vt 0 0
vt 0 1
vt 1 0
vt 1 1
vt 0 0
vt 0 1
vt 1 0
vt 1 1
vt 0 0
vt 0 1
vt 1 0
vt 1 1
vt 0 0
vt 0 1
vt 1 0
vt 1 1
vt 0 0
vt 0 1
vt 1 0
vt 1 1
vt 0 0
vt 0 1
vt 1 0
vt 1 1
vt 0 0
vt 0 1
vt 1 0
vt 1 1
vt 0 0
vt 0 1
vt 1 0
vt 1 1
vt 0 0
vt 0 1
vt 1 0
vt 1 1
vt 0 0
vt 0 1
vt 1 0
vt 1 1
vt 0 0
vt 0 1
vt 1 0
vt 1 1
vt 0 0
vt 0 1
vt 1 0
vt 1 1
vt 0 0
vt 0 1
vt 1 0
vt 1 1
vt 0 0
vt 0 1
vt 1 0
vt 1 1
vt 0 0
vt 0 1
vt 1 0
vt 1 1
vt 0 0
vt 0 1
vt 1 0
vt 1 1
vt 0 0
vt 0 1
vt 1 0
vt 1 1
vt 0 0
vt 0 1
vt 1 0
vt 1 1
vt 0 0
vt 0 1
vt 1 0
vt 1 1
vt 0 0
vt 0 1
vt 1 0
vt 1 1
vt 0 0
vt 0 1
vt 1 0
vt 1 1
vt 0 0
vt 0 1
vt 1 0
vt 1 1
vt 0 0
vt 0 1
vt 1 0
vt 1 1
vt 0 0
vt 0 1
vt 1 0
vt 1 1
vt 0 0
vt 0 1
vt 1 0
vt 1 1
vt 0 0
vt 0 1
vt 1 0
vt 1 1
vt 0 0
vt 0 1
vt 1 0
vt 1 1
vt 0 0
vt 0 1
vt 1 0
vt 1 1
vt 0 0
vt 0 1
vt 1 0
vt 1 1
vt 0 0
vt 0 1
vt 1 0
vt 1 1
vt 0 0
vt 0.5 1
vt 1 0
vt 0 0
vt 0.5 1
vt 1 0
vt 0 0
vt 0.5 1
vt 1 0
vt 0 0
vt 0.5 1
vt 1 0
vt 0 0
vt 0.5 1
vt 1 0
vt 0 0
vt 0.5 1
vt 1 0
vt 0 0
vt 0.5 1
vt 1 0
vt 0 0
vt 0.5 1
vt 1 0
vt 0 0
vt 0.5 1
vt 1 0
vt 0 0
vt 0.5 1
vt 1 0
vt 0 0
vt 0.5 1
vt 1 0
vt 0 0
vt 0.5 1
vt 1 0
vt 0 0
vt 0.5 1
vt 1 0
vt 0 0
vt 0.5 1
vt 1 0
vt 0 0
vt 0.5 1
vt 1 0
vt 0 0
vt 0.5 1
vt 1 0
vn -0.729909 0.443957 0.5197451
vn -0.729909 0.443957 0.5197451
vn -0.729909 0.443957 0.5197451
vn -0.729909 0.443957 0.5197451
vn -0.729909 0.443957 0.5197451
vn -0.729909 0.443957 0.5197451
vn -0.729909 0.443957 0.5197451
vn -0.729909 0.443957 0.5197451
vn -0.729909 0.443957 0.5197451
vn -0.729909 0.443957 0.5197451
vn -0.729909 0.443957 0.5197451
vn -0.729909 0.443957 0.5197451
vn -0.729909 0.443957 0.5197451
vn -0.729909 0.443957 0.5197451
vn -0.729909 0.443957 0.5197451
vn -0.729909 0.443957 0.5197451
vn -0.729909 0.443957 0.5197451
vn -0.729909 0.443957 0.5197451
vn -0.729909 0.443957 0.5197451
vn -0.729909 0.443957 0.5197451
vn -0.729909 0.443957 0.5197451
vn -0.729909 0.443957 0.5197451
vn -0.729909 0.443957 0.5197451
vn -0.729909 0.443957 0.5197451
vn -0.729909 0.443957 0.5197451
vn -0.729909 0.443957 0.5197451
vn -0.729909 0.443957 0.5197451
vn -0.729909 0.443957 0.5197451
vn -0.729909 0.443957 0.5197451
vn -0.729909 0.443957 0.5197451
vn -0.729909 0.443957 0.5197451
vn -0.729909 0.443957 0.5197451
vn -0.729909 0.443957 0.5197451
vn -0.729909 0.443957 0.5197451
vn -0.729909 0.443957 0.5197451
vn -0.729909 0.443957 0.5197451
vn -0.729909 0.443957 0.5197451
vn -0.729909 0.443957 0.5197451
vn -0.729909 0.443957 0.5197451
vn -0.729909 0.443957 0.5197451
vn -0.729909 0.443957 0.5197451
vn -0.729909 0.443957 0.5197451
vn -0.729909 0.443957 0.5197451
vn -0.729909 0.443957 0.5197451
vn -0.729909 0.443957 0.5197451
vn -0.729909 0.443957 0.5197451
vn -0.729909 0.443957 0.5197451
vn -0.729909 0.443957 0.5197451
vn -0.729909 0.443957 0.5197451
vn -0.729909 0.443957 0.5197451
vn -0.729909 0.443957 0.5197451
vn -0.729909 0.443957 0.5197451
vn -0.729909 0.443957 0.5197451
vn -0.729909 0.443957 0.5197451
vn -0.729909 0.443957 0.5197451
vn -0.729909 0.443957 0.5197451
vn -0.729909 0.443957 0.5197451
vn -0.729909 0.443957 0.5197451
vn -0.729909 0.443957 0.5197451
vn -0.729909 0.443957 0.5197451
vn -0.729909 0.443957 0.5197451
vn -0.729909 0.443957 0.5197451
vn -0.729909 0.443957 0.5197451
vn -0.729909 0.443957 0.5197451
vn -0.729909 0.443957 0.5197451
vn -0.729909 0.443957 0.5197451
vn -0.729909 0.443957 0.5197451
vn -0.729909 0.443957 0.5197451
vn -0.729909 0.443957 0.5197451
vn -0.729909 0.443957 0.5197451
vn -0.729909 0.443957 0.5197451
vn -0.729909 0.443957 0.5197451
vn -0.729909 0.443957 0.5197451
vn -0.729909 0.443957 0.5197451
vn -0.729909 0.443957 0.5197451
vn -0.729909 0.443957 0.5197451
vn -0.729909 0.443957 0.5197451
vn -0.729909 0.443957 0.5197451
vn -0.729909 0.443957 0.5197451
vn -0.729909 0.443957 0.5197451
vn -0.729909 0.443957 0.5197451
vn -0.729909 0.443957 0.5197451
vn -0.729909 0.443957 0.5197451
vn -0.729909 0.443957 0.5197451
vn -0.729909 0.443957 0.5197451
vn -0.729909 0.443957 0.5197451
vn -0.729909 0.443957 0.5197451
vn -0.729909 0.443957 0.5197451
vn -0.729909 0.443957 0.5197451
vn -0.729909 0.443957 0.5197451
vn -0.729909 0.443957 0.5197451
vn -0.729909 0.443957 0.5197451
vn -0.729909 0.443957 0.5197451
vn -0.729909 0.443957 0.5197451
vn -0.729909 0.443957 0.5197451
vn -0.729909 0.443957 0.5197451
vn -0.729909 0.443957 0.5197451
vn -0.729909 0.443957 0.5197451
vn -0.729909 0.443957 0.5197451
vn -0.729909 0.443957 0.5197451
vn -0.729909 0.443957 0.5197451
vn -0.729909 0.443957 0.5197451
vn -0.729909 0.443957 0.5197451
vn -0.729909 0.443957 0.5197451
vn -0.729909 0.443957 0.5197451
vn -0.729909 0.443957 0.5197451
vn -0.729909 0.443957 0.5197451
vn -0.729909 0.443957 0.5197451
vn -0.729909 0.443957 0.5197451
vn -0.729909 0.443957 0.5197451
vn -0.729909 0.443957 0.5197451
vn -0.729909 0.443957 0.5197451
vn -0.729909 0.443957 0.5197451
vn -0.729909 0.443957 0.5197451
vn -0.729909 0.443957 0.5197451
vn -0.729909 0.443957 0.5197451
vn -0.729909 0.443957 0.5197451
vn -0.729909 0.443957 0.5197451
vn -0.729909 0.443957 0.5197451
vn -0.729909 0.443957 0.5197451
vn -0.729909 0.443957 0.5197451
vn -0.729909 0.443957 0.5197451
vn -0.729909 0.443957 0.5197451
vn -0.729909 0.443957 0.5197451
vn -0.729909 0.443957 0.5197451
vn -0.729909 0.443957 0.5197451
vn -0.729909 0.443957 0.5197451
vn -0.729909 0.443957 0.5197451
vn -0.729909 0.443957 0.5197451
vn -0.729909 0.443957 0.5197451
vn -0.729909 0.443957 0.5197451
vn -0.729909 0.443957 0.5197451
vn -0.729909 0.443957 0.5197451
vn -0.729909 0.443957 0.5197451
vn -0.729909 0.443957 0.5197451
vn -0.729909 0.443957 0.5197451
vn -0.729909 0.443957 0.5197451
vn -0.729909 0.443957 0.5197451
vn -0.729909 0.443957 0.5197451
vn -0.729909 0.443957 0.5197451
vn -0.729909 0.443957 0.5197451
vn -0.729909 0.443957 0.5197451
vn -0.729909 0.443957 0.5197451
vn -0.729909 0.443957 0.5197451
vn -0.729909 0.443957 0.5197451
vn -0.729909 0.443957 0.5197451
vn -0.729909 0.443957 0.5197451
vn -0.729909 0.443957 0.5197451
vn -0.729909 0.443957 0.5197451
vn -0.729909 0.443957 0.5197451
vn -0.729909 0.443957 0.5197451
vn -0.729909 0.443957 0.5197451
vn -0.729909 0.443957 0.5197451
vn -0.729909 0.443957 0.5197451
vn -0.729909 0.443957 0.5197451
vn -0.729909 0.443957 0.5197451
vn -0.729909 0.443957 0.5197451
vn -0.729909 0.443957 0.5197451
vn -0.729909 0.443957 0.5197451
vn -0.729909 0.443957 0.5197451
vn -0.729909 0.443957 0.5197451
vn -0.729909 0.443957 0.5197451
vn -0.729909 0.443957 0.5197451
vn -0.729909 0.443957 0.5197451
vn -0.729909 0.443957 0.5197451
vn -0.729909 0.443957 0.5197451
vn -0.729909 0.443957 0.5197451
vn -0.729909 0.443957 0.5197451
vn -0.729909 0.443957 0.5197451
vn -0.729909 0.443957 0.5197451
vn -0.729909 0.443957 0.5197451
vn -0.729909 0.443957 0.5197451
vn -0.729909 0.443957 0.5197451
vn -0.729909 0.443957 0.5197451
vn -0.729909 0.443957 0.5197451
vn -0.729909 0.443957 0.5197451
vn -0.729909 0.443957 0.5197451
vn -0.729909 0.443957 0.5197451
vn -0.729909 0.443957 0.5197451
vn -0.729909 0.443957 0.5197451
vn -0.729909 0.443957 0.5197451
vn -0.729909 0.443957 0.5197451
vn -0.729909 0.443957 0.5197451
vn -0.729909 0.443957 0.5197451
vn -0.729909 0.443957 0.5197451
vn -0.729909 0.443957 0.5197451
vn -0.729909 0.443957 0.5197451
vn -0.729909 0.443957 0.5197451
vn -0.729909 0.443957 0.5197451
vn -0.729909 0.443957 0.5197451
vn -0.729909 0.443957 0.5197451
vn -0.729909 0.443957 0.5197451
vn -0.729909 0.443957 0.5197451
vn -0.729909 0.443957 0.5197451
vn -0.729909 0.443957 0.5197451
vn -0.729909 0.443957 0.5197451
vn -0.729909 0.443957 0.5197451
vn -0.729909 0.443957 0.5197451
vn -0.729909 0.443957 0.5197451
vn -0.729909 0.443957 0.5197451
vn -0.729909 0.443957 0.5197451
vn -0.729909 0.443957 0.5197451
vn -0.729909 0.443957 0.5197451
vn -0.729909 0.443957 0.5197451
vn -0.729909 0.443957 0.5197451
vn -0.729909 0.443957 0.5197451
vn -0.729909 0.443957 0.5197451
vn -0.729909 0.443957 0.5197451
vn -0.729909 0.443957 0.5197451
vn -0.729909 0.443957 0.5197451
vn -0.729909 0.443957 0.5197451
vn -0.729909 0.443957 0.5197451
vn -0.729909 0.443957 0.5197451
vn -0.729909 0.443957 0.5197451
vn -0.729909 0.443957 0.5197451
vn -0.729909 0.443957 0.5197451
vn -0.729909 0.443957 0.5197451
vn -0.729909 0.443957 0.5197451
vn -0.729909 0.443957 0.5197451
vn -0.729909 0.443957 0.5197451
vn -0.729909 0.443957 0.5197451
vn -0.729909 0.443957 0.5197451
vn -0.729909 0.443957 0.5197451
vn -0.729909 0.443957 0.5197451
vn -0.729909 0.443957 0.5197451
vn -0.729909 0.443957 0.5197451
vn -0.729909 0.443957 0.5197451
vn -0.729909 0.443957 0.5197451
vn -0.729909 0.443957 0.5197451
vn -0.729909 0.443957 0.5197451
vn -0.729909 0.443957 0.5197451
vn -0.729909 0.443957 0.5197451
vn -0.729909 0.443957 0.5197451
vn -0.729909 0.443957 0.5197451
vn -0.729909 0.443957 0.5197451
vn -0.729909 0.443957 0.5197451
vn -0.729909 0.443957 0.5197451
vn -0.729909 0.443957 0.5197451
vn -0.729909 0.443957 0.5197451
vn -0.729909 0.443957 0.5197451
g L_LowerSpeaker_0
f 3/3/3 2/2/2 1/1/1
f 3/3/3 4/4/4 2/2/2
f 7/7/7 6/6/6 5/5/5
f 7/7/7 8/8/8 6/6/6
f 11/11/11 10/10/10 9/9/9
f 11/11/11 12/12/12 10/10/10
f 15/15/15 14/14/14 13/13/13
f 15/15/15 16/16/16 14/14/14
f 19/19/19 18/18/18 17/17/17
f 19/19/19 20/20/20 18/18/18
f 23/23/23 22/22/22 21/21/21
f 23/23/23 24/24/24 22/22/22
f 27/27/27 26/26/26 25/25/25
f 27/27/27 28/28/28 26/26/26
f 31/31/31 30/30/30 29/29/29
f 31/31/31 32/32/32 30/30/30
f 35/35/35 34/34/34 33/33/33
f 35/35/35 36/36/36 34/34/34
f 39/39/39 38/38/38 37/37/37
f 39/39/39 40/40/40 38/38/38
f 43/43/43 42/42/42 41/41/41
f 43/43/43 44/44/44 42/42/42
f 47/47/47 46/46/46 45/45/45
f 47/47/47 48/48/48 46/46/46
f 51/51/51 50/50/50 49/49/49
f 51/51/51 52/52/52 50/50/50
f 55/55/55 54/54/54 53/53/53
f 55/55/55 56/56/56 54/54/54
f 59/59/59 58/58/58 57/57/57
f 59/59/59 60/60/60 58/58/58
f 63/63/63 62/62/62 61/61/61
f 63/63/63 64/64/64 62/62/62
f 67/67/67 66/66/66 65/65/65
f 67/67/67 68/68/68 66/66/66
f 71/71/71 70/70/70 69/69/69
f 71/71/71 72/72/72 70/70/70
f 75/75/75 74/74/74 73/73/73
f 75/75/75 76/76/76 74/74/74
f 79/79/79 78/78/78 77/77/77
f 79/79/79 80/80/80 78/78/78
f 83/83/83 82/82/82 81/81/81
f 83/83/83 84/84/84 82/82/82
f 87/87/87 86/86/86 85/85/85
f 87/87/87 88/88/88 86/86/86
f 91/91/91 90/90/90 89/89/89
f 91/91/91 92/92/92 90/90/90
f 95/95/95 94/94/94 93/93/93
f 95/95/95 96/96/96 94/94/94
f 99/99/99 98/98/98 97/97/97
f 99/99/99 100/100/100 98/98/98
f 103/103/103 102/102/102 101/101/101
f 103/103/103 104/104/104 102/102/102
f 107/107/107 106/106/106 105/105/105
f 107/107/107 108/108/108 106/106/106
f 111/111/111 110/110/110 109/109/109
f 111/111/111 112/112/112 110/110/110
f 115/115/115 114/114/114 113/113/113
f 115/115/115 116/116/116 114/114/114
f 119/119/119 118/118/118 117/117/117
f 119/119/119 120/120/120 118/118/118
f 123/123/123 122/122/122 121/121/121
f 123/123/123 124/124/124 122/122/122
f 127/127/127 126/126/126 125/125/125
f 127/127/127 128/128/128 126/126/126
f 131/131/131 130/130/130 129/129/129
f 131/131/131 132/132/132 130/130/130
f 135/135/135 134/134/134 133/133/133
f 135/135/135 136/136/136 134/134/134
f 139/139/139 138/138/138 137/137/137
f 139/139/139 140/140/140 138/138/138
f 143/143/143 142/142/142 141/141/141
f 143/143/143 144/144/144 142/142/142
f 147/147/147 146/146/146 145/145/145
f 147/147/147 148/148/148 146/146/146
f 151/151/151 150/150/150 149/149/149
f 151/151/151 152/152/152 150/150/150
f 155/155/155 154/154/154 153/153/153
f 155/155/155 156/156/156 154/154/154
f 159/159/159 158/158/158 157/157/157
f 159/159/159 160/160/160 158/158/158
f 163/163/163 162/162/162 161/161/161
f 163/163/163 164/164/164 162/162/162
f 167/167/167 166/166/166 165/165/165
f 167/167/167 168/168/168 166/166/166
f 171/171/171 170/170/170 169/169/169
f 171/171/171 172/172/172 170/170/170
f 175/175/175 174/174/174 173/173/173
f 175/175/175 176/176/176 174/174/174
f 179/179/179 178/178/178 177/177/177
f 179/179/179 180/180/180 178/178/178
f 183/183/183 182/182/182 181/181/181
f 183/183/183 184/184/184 182/182/182
f 187/187/187 186/186/186 185/185/185
f 187/187/187 188/188/188 186/186/186
f 191/191/191 190/190/190 189/189/189
f 191/191/191 192/192/192 190/190/190
f 195/195/195 194/194/194 193/193/193
f 198/198/198 197/197/197 196/196/196
f 201/201/201 200/200/200 199/199/199
f 204/204/204 203/203/203 202/202/202
f 207/207/207 206/206/206 205/205/205
f 210/210/210 209/209/209 208/208/208
f 213/213/213 212/212/212 211/211/211
f 216/216/216 215/215/215 214/214/214
f 219/219/219 218/218/218 217/217/217
f 222/222/222 221/221/221 220/220/220
f 225/225/225 224/224/224 223/223/223
f 228/228/228 227/227/227 226/226/226
f 231/231/231 230/230/230 229/229/229
f 234/234/234 233/233/233 232/232/232
f 237/237/237 236/236/236 235/235/235
f 240/240/240 239/239/239 238/238/238
