g L_LowerRPolkaArc
v 0.234348 -0.006013014 -0.1672106
v 0.234348 0.1198496 -0.1167543
v 0.2458189 -0.06293175 -0.02522826
v 0.2458189 0.06293073 0.02522802
v 0.2003751 0.04871776 -0.3037367
v 0.2003751 0.1745804 -0.2532804
v 0.234348 -0.006013014 -0.1672106
v 0.234348 0.1198496 -0.1167543
v 0.145208 0.09915724 -0.429559
v 0.145208 0.2250209 -0.3791032
v 0.2003751 0.04871776 -0.3037367
v 0.2003751 0.1745804 -0.2532804
v 0.07096502 0.1433685 -0.5398436
v 0.07096502 0.2692322 -0.4893882
v 0.145208 0.09915724 -0.429559
v 0.145208 0.2250209 -0.3791032
v -0.019501 0.1796523 -0.6303525
v -0.019501 0.305515 -0.579896
v 0.07096502 0.1433685 -0.5398436
v 0.07096502 0.2692322 -0.4893882
v -0.122712 0.2066132 -0.6976066
v -0.122712 0.3324756 -0.64715
v -0.019501 0.1796523 -0.6303525
v -0.019501 0.305515 -0.579896
v -0.234703 0.2232154 -0.7390211
v -0.234703 0.349078 -0.6885645
v -0.122712 0.2066132 -0.6976066
v -0.122712 0.3324756 -0.64715
v -0.351169 0.228822 -0.7530053
v -0.351169 0.3546846 -0.702549
v -0.234703 0.2232154 -0.7390211
v -0.234703 0.349078 -0.6885645
v -0.234703 -0.349079 0.6885653
v -0.234703 -0.2232164 0.7390218
v -0.351169 -0.3546855 0.7025487
v -0.351169 -0.228822 0.7530054
v -0.122712 -0.3324767 0.6471509
v -0.122712 -0.2066141 0.6976063
v -0.234703 -0.349079 0.6885653
v -0.234703 -0.2232164 0.7390218
v -0.019501 -0.305516 0.5798968
v -0.019501 -0.1796534 0.6303532
v -0.122712 -0.3324767 0.6471509
v -0.122712 -0.2066141 0.6976063
v 0.07096502 -0.2692321 0.4893881
v 0.07096502 -0.1433695 0.5398445
v -0.019501 -0.305516 0.5798968
v -0.019501 -0.1796534 0.6303532
v 0.145208 -0.2250208 0.3791033
v 0.145208 -0.09915838 0.4295597
v 0.07096502 -0.2692321 0.4893881
v 0.07096502 -0.1433695 0.5398445
v 0.2003751 -0.1745812 0.25328
v 0.2003751 -0.04871867 0.3037364
v 0.145208 -0.2250208 0.3791033
v 0.145208 -0.09915838 0.4295597
v 0.234348 -0.1198505 0.1167539
v 0.234348 0.006013057 0.1672105
v 0.2003751 -0.1745812 0.25328
v 0.2003751 -0.04871867 0.3037364
v 0.2458189 -0.06293175 -0.02522826
v 0.2458189 0.06293073 0.02522802
v 0.234348 -0.1198505 0.1167539
v 0.234348 0.006013057 0.1672105
v 0.2458189 0.06293073 0.02522802
v 0.234348 0.1198496 -0.1167543
v 0.351169 0.06293073 0.02522802
v 0.337674 0.1298932 -0.1418097
v 0.234348 0.1198496 -0.1167543
v 0.2003751 0.1745804 -0.2532804
v 0.337674 0.1298932 -0.1418097
v 0.297707 0.1942824 -0.3024285
v 0.2003751 0.1745804 -0.2532804
v 0.145208 0.2250209 -0.3791032
v 0.297707 0.1942824 -0.3024285
v 0.232804 0.2536249 -0.4504559
v 0.145208 0.2250209 -0.3791032
v 0.07096502 0.2692322 -0.4893882
v 0.232804 0.2536249 -0.4504559
v 0.145459 0.3056374 -0.5802026
v 0.07096502 0.2692322 -0.4893882
v -0.019501 0.305515 -0.579896
v 0.145459 0.3056374 -0.5802026
v 0.03902897 0.3483243 -0.6866829
v -0.019501 0.305515 -0.579896
v -0.122712 0.3324756 -0.64715
v 0.03902897 0.3483243 -0.6866829
v -0.08239594 0.3800426 -0.7658057
v -0.122712 0.3324756 -0.64715
v -0.234703 0.349078 -0.6885645
v -0.08239594 0.3800426 -0.7658057
v -0.21415 0.3995747 -0.814528
v -0.234703 0.349078 -0.6885645
v -0.351169 0.3546846 -0.702549
v -0.21415 0.3995747 -0.814528
v -0.351169 0.4061705 -0.8309801
v -0.234703 -0.2232164 0.7390218
v -0.214149 -0.2737131 0.8649843
v -0.351169 -0.228822 0.7530054
v -0.351169 -0.2803079 0.8814365
v -0.122712 -0.2066141 0.6976063
v -0.08239594 -0.2541808 0.8162609
v -0.234703 -0.2232164 0.7390218
v -0.214149 -0.2737131 0.8649843
v -0.019501 -0.1796534 0.6303532
v 0.03902897 -0.2224616 0.7371383
v -0.122712 -0.2066141 0.6976063
v -0.08239594 -0.2541808 0.8162609
v 0.07096502 -0.1433695 0.5398445
v 0.145459 -0.1797756 0.6306578
v -0.019501 -0.1796534 0.6303532
v 0.03902897 -0.2224616 0.7371383
v 0.145208 -0.09915838 0.4295597
v 0.232803 -0.1277622 0.5009112
v 0.07096502 -0.1433695 0.5398445
v 0.145459 -0.1797756 0.6306578
v 0.2003751 -0.04871867 0.3037364
v 0.297706 -0.06842075 0.3528847
v 0.145208 -0.09915838 0.4295597
v 0.232803 -0.1277622 0.5009112
v 0.234348 0.006013057 0.1672105
v 0.337673 -0.004031756 0.1922659
v 0.2003751 -0.04871867 0.3037364
v 0.297706 -0.06842075 0.3528847
v 0.2458189 0.06293073 0.02522802
v 0.351169 0.06293073 0.02522802
v 0.234348 0.006013057 0.1672105
v 0.337673 -0.004031756 0.1922659
v 0.337674 0.1298932 -0.1418097
v 0.337674 0.004030726 -0.192266
v 0.351169 0.06293073 0.02522802
v 0.351169 -0.06293175 -0.02522826
v 0.297707 0.1942824 -0.3024285
v 0.297707 0.06841996 -0.3528848
v 0.337674 0.1298932 -0.1418097
v 0.337674 0.004030726 -0.192266
v 0.232804 0.2536249 -0.4504559
v 0.232804 0.1277614 -0.5009122
v 0.297707 0.1942824 -0.3024285
v 0.297707 0.06841996 -0.3528848
v 0.145459 0.3056374 -0.5802026
v 0.145459 0.1797748 -0.6306591
v 0.232804 0.2536249 -0.4504559
v 0.232804 0.1277614 -0.5009122
v 0.03902897 0.3483243 -0.6866829
v 0.03902897 0.2224608 -0.7371395
v 0.145459 0.3056374 -0.5802026
v 0.145459 0.1797748 -0.6306591
v -0.08239594 0.3800426 -0.7658057
v -0.08239594 0.2541799 -0.8162611
v 0.03902897 0.3483243 -0.6866829
v 0.03902897 0.2224608 -0.7371395
v -0.21415 0.3995747 -0.814528
v -0.21415 0.2737122 -0.8649845
v -0.08239594 0.3800426 -0.7658057
v -0.08239594 0.2541799 -0.8162611
v -0.351169 0.4061705 -0.8309801
v -0.351169 0.280307 -0.8814366
v -0.21415 0.3995747 -0.814528
v -0.21415 0.2737122 -0.8649845
v -0.214149 -0.2737131 0.8649843
v -0.214149 -0.3995756 0.8145278
v -0.351169 -0.2803079 0.8814365
v -0.351169 -0.4061705 0.8309801
v -0.08239594 -0.2541808 0.8162609
v -0.08239594 -0.3800434 0.7658044
v -0.214149 -0.2737131 0.8649843
v -0.214149 -0.3995756 0.8145278
v 0.03902897 -0.2224616 0.7371383
v 0.03902897 -0.3483243 0.6866829
v -0.08239594 -0.2541808 0.8162609
v -0.08239594 -0.3800434 0.7658044
v 0.145459 -0.1797756 0.6306578
v 0.145459 -0.3056383 0.5802025
v 0.03902897 -0.2224616 0.7371383
v 0.03902897 -0.3483243 0.6866829
v 0.232803 -0.1277622 0.5009112
v 0.232803 -0.2536246 0.4504547
v 0.145459 -0.1797756 0.6306578
v 0.145459 -0.3056383 0.5802025
v 0.297706 -0.06842075 0.3528847
v 0.297706 -0.1942834 0.3024281
v 0.232803 -0.1277622 0.5009112
v 0.232803 -0.2536246 0.4504547
v 0.337673 -0.004031756 0.1922659
v 0.337673 -0.1298941 0.1418095
v 0.297706 -0.06842075 0.3528847
v 0.297706 -0.1942834 0.3024281
v 0.351169 0.06293073 0.02522802
v 0.351169 -0.06293175 -0.02522826
v 0.337673 -0.004031756 0.1922659
v 0.337673 -0.1298941 0.1418095
v 0.337674 0.004030726 -0.192266
v 0.234348 -0.006013014 -0.1672106
v 0.351169 -0.06293175 -0.02522826
v 0.2458189 -0.06293175 -0.02522826
v 0.297707 0.06841996 -0.3528848
v 0.2003751 0.04871776 -0.3037367
v 0.337674 0.004030726 -0.192266
v 0.234348 -0.006013014 -0.1672106
v 0.232804 0.1277614 -0.5009122
v 0.145208 0.09915724 -0.429559
v 0.297707 0.06841996 -0.3528848
v 0.2003751 0.04871776 -0.3037367
v 0.145459 0.1797748 -0.6306591
v 0.07096502 0.1433685 -0.5398436
v 0.232804 0.1277614 -0.5009122
v 0.145208 0.09915724 -0.429559
v 0.03902897 0.2224608 -0.7371395
v -0.019501 0.1796523 -0.6303525
v 0.145459 0.1797748 -0.6306591
v 0.07096502 0.1433685 -0.5398436
v -0.08239594 0.2541799 -0.8162611
v -0.122712 0.2066132 -0.6976066
v 0.03902897 0.2224608 -0.7371395
v -0.019501 0.1796523 -0.6303525
v -0.21415 0.2737122 -0.8649845
v -0.234703 0.2232154 -0.7390211
v -0.08239594 0.2541799 -0.8162611
v -0.122712 0.2066132 -0.6976066
v -0.351169 0.280307 -0.8814366
v -0.351169 0.228822 -0.7530053
v -0.21415 0.2737122 -0.8649845
v -0.234703 0.2232154 -0.7390211
v -0.351169 -0.4061705 0.8309801
v -0.214149 -0.3995756 0.8145278
v -0.351169 -0.3546855 0.7025487
v -0.234703 -0.349079 0.6885653
v -0.214149 -0.3995756 0.8145278
v -0.08239594 -0.3800434 0.7658044
v -0.234703 -0.349079 0.6885653
v -0.122712 -0.3324767 0.6471509
v -0.08239594 -0.3800434 0.7658044
v 0.03902897 -0.3483243 0.6866829
v -0.122712 -0.3324767 0.6471509
v -0.019501 -0.305516 0.5798968
v 0.03902897 -0.3483243 0.6866829
v 0.145459 -0.3056383 0.5802025
v -0.019501 -0.305516 0.5798968
v 0.07096502 -0.2692321 0.4893881
v 0.145459 -0.3056383 0.5802025
v 0.232803 -0.2536246 0.4504547
v 0.07096502 -0.2692321 0.4893881
v 0.145208 -0.2250208 0.3791033
v 0.232803 -0.2536246 0.4504547
v 0.297706 -0.1942834 0.3024281
v 0.145208 -0.2250208 0.3791033
v 0.2003751 -0.1745812 0.25328
v 0.297706 -0.1942834 0.3024281
v 0.337673 -0.1298941 0.1418095
v 0.2003751 -0.1745812 0.25328
v 0.234348 -0.1198505 0.1167539
v 0.337673 -0.1298941 0.1418095
v 0.351169 -0.06293175 -0.02522826
v 0.234348 -0.1198505 0.1167539
v 0.2458189 -0.06293175 -0.02522826
v -0.351169 -0.2803079 0.8814365
v -0.351169 -0.4061705 0.8309801
v -0.351169 -0.228822 0.7530054
v -0.351169 -0.3546855 0.7025487
v -0.351169 0.3546846 -0.702549
v -0.351169 0.228822 -0.7530053
v -0.351169 0.4061705 -0.8309801
v -0.351169 0.280307 -0.8814366
vt 1 2.980232E-08
vt 2.980232E-08 0
vt 1 1
vt 0 1
vt 1 2.980232E-08
vt 2.980232E-08 0
vt 1 1
vt 0 1
vt 1 2.980232E-08
vt 2.980232E-08 0
vt 1 1
vt 0 1
vt 1 2.980232E-08
vt 2.980232E-08 0
vt 1 1
vt 0 1
vt 1 2.980232E-08
vt 2.980232E-08 0
vt 1 1
vt 0 1
vt 1 2.980232E-08
vt 2.980232E-08 0
vt 1 1
vt 0 1
vt 1 2.980232E-08
vt 2.980232E-08 0
vt 1 1
vt 0 1
vt 1 2.980232E-08
vt 2.980232E-08 0
vt 1 1
vt 0 1
vt 1 2.980232E-08
vt 2.980232E-08 0
vt 1 1
vt 0 1
vt 1 2.980232E-08
vt 2.980232E-08 0
vt 1 1
vt 0 1
vt 1 2.980232E-08
vt 2.980232E-08 0
vt 1 1
vt 0 1
vt 1 2.980232E-08
vt 2.980232E-08 0
vt 1 1
vt 0 1
vt 1 2.980232E-08
vt 2.980232E-08 0
vt 1 1
vt 0 1
vt 1 2.980232E-08
vt 2.980232E-08 0
vt 1 1
vt 0 1
vt 1 2.980232E-08
vt 2.980232E-08 0
vt 1 1
vt 0 1
vt 1 2.980232E-08
vt 2.980232E-08 0
vt 1 1
vt 0 1
vt 1 1
vt 1 2.980232E-08
vt 0 1
vt 2.980232E-08 0
vt 1 1
vt 1 2.980232E-08
vt 0 1
vt 2.980232E-08 0
vt 1 1
vt 1 2.980232E-08
vt 0 1
vt 2.980232E-08 0
vt 1 1
vt 1 2.980232E-08
vt 0 1
vt 2.980232E-08 0
vt 1 1
vt 1 2.980232E-08
vt 0 1
vt 2.980232E-08 0
vt 1 1
vt 1 2.980232E-08
vt 0 1
vt 2.980232E-08 0
vt 1 1
vt 1 2.980232E-08
vt 0 1
vt 2.980232E-08 0
vt 1 1
vt 1 2.980232E-08
vt 0 1
vt 2.980232E-08 0
vt 1 2.980232E-08
vt 2.980232E-08 0
vt 1 1
vt 0 1
vt 1 2.980232E-08
vt 2.980232E-08 0
vt 1 1
vt 0 1
vt 1 2.980232E-08
vt 2.980232E-08 0
vt 1 1
vt 0 1
vt 1 2.980232E-08
vt 2.980232E-08 0
vt 1 1
vt 0 1
vt 1 2.980232E-08
vt 2.980232E-08 0
vt 1 1
vt 0 1
vt 1 2.980232E-08
vt 2.980232E-08 0
vt 1 1
vt 0 1
vt 1 2.980232E-08
vt 2.980232E-08 0
vt 1 1
vt 0 1
vt 1 2.980232E-08
vt 2.980232E-08 0
vt 1 1
vt 0 1
vt 1 2.980232E-08
vt 2.980232E-08 0
vt 1 1
vt 0 1
vt 1 2.980232E-08
vt 2.980232E-08 0
vt 1 1
vt 0 1
vt 1 2.980232E-08
vt 2.980232E-08 0
vt 1 1
vt 0 1
vt 1 2.980232E-08
vt 2.980232E-08 0
vt 1 1
vt 0 1
vt 1 2.980232E-08
vt 2.980232E-08 0
vt 1 1
vt 0 1
vt 1 2.980232E-08
vt 2.980232E-08 0
vt 1 1
vt 0 1
vt 1 2.980232E-08
vt 2.980232E-08 0
vt 1 1
vt 0 1
vt 1 2.980232E-08
vt 2.980232E-08 0
vt 1 1
vt 0 1
vt 1 2.980232E-08
vt 2.980232E-08 0
vt 1 1
vt 0 1
vt 1 2.980232E-08
vt 2.980232E-08 0
vt 1 1
vt 0 1
vt 1 2.980232E-08
vt 2.980232E-08 0
vt 1 1
vt 0 1
vt 1 2.980232E-08
vt 2.980232E-08 0
vt 1 1
vt 0 1
vt 1 2.980232E-08
vt 2.980232E-08 0
vt 1 1
vt 0 1
vt 1 2.980232E-08
vt 2.980232E-08 0
vt 1 1
vt 0 1
vt 1 2.980232E-08
vt 2.980232E-08 0
vt 1 1
vt 0 1
vt 1 2.980232E-08
vt 2.980232E-08 0
vt 1 1
vt 0 1
vt 1 2.980232E-08
vt 2.980232E-08 0
vt 1 1
vt 0 1
vt 1 2.980232E-08
vt 2.980232E-08 0
vt 1 1
vt 0 1
vt 1 2.980232E-08
vt 2.980232E-08 0
vt 1 1
vt 0 1
vt 1 2.980232E-08
vt 2.980232E-08 0
vt 1 1
vt 0 1
vt 1 2.980232E-08
vt 2.980232E-08 0
vt 1 1
vt 0 1
vt 1 2.980232E-08
vt 2.980232E-08 0
vt 1 1
vt 0 1
vt 1 2.980232E-08
vt 2.980232E-08 0
vt 1 1
vt 0 1
vt 1 2.980232E-08
vt 2.980232E-08 0
vt 1 1
vt 0 1
vt 1 1
vt 1 2.980232E-08
vt 0 1
vt 2.980232E-08 0
vt 1 1
vt 1 2.980232E-08
vt 0 1
vt 2.980232E-08 0
vt 1 1
vt 1 2.980232E-08
vt 0 1
vt 2.980232E-08 0
vt 1 1
vt 1 2.980232E-08
vt 0 1
vt 2.980232E-08 0
vt 1 1
vt 1 2.980232E-08
vt 0 1
vt 2.980232E-08 0
vt 1 1
vt 1 2.980232E-08
vt 0 1
vt 2.980232E-08 0
vt 1 1
vt 1 2.980232E-08
vt 0 1
vt 2.980232E-08 0
vt 1 1
vt 1 2.980232E-08
vt 0 1
vt 2.980232E-08 0
vt 1 2.980232E-08
vt 2.980232E-08 0
vt 1 1
vt 0 1
vt 1 2.980232E-08
vt 2.980232E-08 0
vt 1 1
vt 0 1
vn -0.988725 -0.0557185 0.1389899
vn -0.988725 -0.0557185 0.1389899
vn -1 0 0
vn -1 0 0
vn -0.9536956 -0.111917 0.2791761
vn -0.9536956 -0.111917 0.2791761
vn -0.988725 -0.0557185 0.1389899
vn -0.988725 -0.0557185 0.1389899
vn -0.8912886 -0.1687223 0.4208768
vn -0.8912886 -0.1687223 0.4208768
vn -0.9536956 -0.111917 0.2791761
vn -0.9536956 -0.111917 0.2791761
vn -0.7956302 -0.2254099 0.5622838
vn -0.7956302 -0.2254099 0.5622838
vn -0.8912886 -0.1687223 0.4208768
vn -0.8912886 -0.1687223 0.4208768
vn -0.6596017 -0.2796734 0.6976448
vn -0.6596017 -0.2796734 0.6976448
vn -0.7956302 -0.2254099 0.5622838
vn -0.7956302 -0.2254099 0.5622838
vn -0.4778837 -0.3268588 0.8153468
vn -0.4778837 -0.3268588 0.8153468
vn -0.6596017 -0.2796734 0.6976448
vn -0.6596017 -0.2796734 0.6976448
vn -0.2527669 -0.3600134 0.8980531
vn -0.2527669 -0.3600134 0.8980531
vn -0.4778837 -0.3268588 0.8153468
vn -0.4778837 -0.3268588 0.8153468
vn -0.128289 -0.369022 0.9205242
vn -0.128289 -0.369022 0.9205242
vn -0.2527669 -0.3600134 0.8980531
vn -0.2527669 -0.3600134 0.8980531
vn -0.128289 0.369022 -0.9205242
vn -0.128289 0.369022 -0.9205242
vn -0.128289 0.369022 -0.9205242
vn -0.128289 0.369022 -0.9205242
vn -0.370119 0.3456724 -0.8622775
vn -0.370119 0.3456724 -0.8622775
vn -0.370119 0.3456724 -0.8622775
vn -0.370119 0.3456724 -0.8622775
vn -0.6596032 0.2796733 -0.6976435
vn -0.6596032 0.2796733 -0.6976435
vn -0.5745731 0.3045437 -0.7596834
vn -0.5745731 0.3045437 -0.7596834
vn -0.7956305 0.2254097 -0.5622833
vn -0.7956305 0.2254097 -0.5622833
vn -0.6596032 0.2796733 -0.6976435
vn -0.6596032 0.2796733 -0.6976435
vn -0.8912886 0.1687223 -0.4208768
vn -0.8912886 0.1687223 -0.4208768
vn -0.7956305 0.2254097 -0.5622833
vn -0.7956305 0.2254097 -0.5622833
vn -0.9536956 0.111917 -0.2791761
vn -0.9536956 0.111917 -0.2791761
vn -0.8912886 0.1687223 -0.4208768
vn -0.8912886 0.1687223 -0.4208768
vn -0.988725 0.0557185 -0.1389899
vn -0.988725 0.0557185 -0.1389899
vn -0.9536956 0.111917 -0.2791761
vn -0.9536956 0.111917 -0.2791761
vn -1 0 0
vn -1 0 0
vn -0.988725 0.0557185 -0.1389899
vn -0.988725 0.0557185 -0.1389899
vn 0 0.9281939 0.3720969
vn 0 0.9281939 0.3720969
vn 0 0.9281939 0.3720969
vn 0 0.9281939 0.3720969
vn 0 0.9281939 0.3720969
vn 0 0.9281939 0.3720969
vn 0 0.9281939 0.3720969
vn 0 0.9281939 0.3720969
vn 0 0.9281939 0.3720969
vn 0 0.9281939 0.3720969
vn 0 0.9281939 0.3720969
vn 0 0.9281939 0.3720969
vn 0 0.9281939 0.3720969
vn 0 0.9281939 0.3720969
vn 0 0.9281939 0.3720969
vn 0 0.9281939 0.3720969
vn 0 0.9281939 0.3720969
vn 0 0.9281939 0.3720969
vn 0 0.9281939 0.3720969
vn 0 0.9281939 0.3720969
vn 0 0.9281939 0.3720969
vn 0 0.9281939 0.3720969
vn 0 0.9281939 0.3720969
vn 0 0.9281939 0.3720969
vn 0 0.9281939 0.3720969
vn 0 0.9281939 0.3720969
vn 0 0.9281939 0.3720969
vn 0 0.9281939 0.3720969
vn 0 0.9281939 0.3720969
vn 0 0.9281939 0.3720969
vn 0 0.9281939 0.3720969
vn 0 0.9281939 0.3720969
vn 0 0.9281939 0.3720969
vn 0 0.9281939 0.3720969
vn 0 0.9281939 0.3720969
vn 0 0.9281939 0.3720969
vn 0 0.9281939 0.3720969
vn 0 0.9281939 0.3720969
vn 0 0.9281939 0.3720969
vn 0 0.9281939 0.3720969
vn 0 0.9281939 0.3720969
vn 0 0.9281939 0.3720969
vn 0 0.9281939 0.3720969
vn 0 0.9281939 0.3720969
vn 0 0.9281939 0.3720969
vn 0 0.9281939 0.3720969
vn 0 0.9281939 0.3720969
vn 0 0.9281939 0.3720969
vn 0 0.9281939 0.3720969
vn 0 0.9281939 0.3720969
vn 0 0.9281939 0.3720969
vn 0 0.9281939 0.3720969
vn 0 0.9281939 0.3720969
vn 0 0.9281939 0.3720969
vn 0 0.9281939 0.3720969
vn 0 0.9281939 0.3720969
vn 0 0.9281939 0.3720969
vn 0 0.9281939 0.3720969
vn 0 0.9281939 0.3720969
vn 0 0.9281939 0.3720969
vn 0 0.9281939 0.3720969
vn 0 0.9281939 0.3720969
vn 0 0.9281939 0.3720969
vn 0 0.9281939 0.3720969
vn 0.9887251 0.05571839 -0.138989
vn 0.9887251 0.05571839 -0.138989
vn 1 0 0
vn 1 0 0
vn 0.9536952 0.1119172 -0.2791773
vn 0.9536952 0.1119172 -0.2791773
vn 0.9887251 0.05571839 -0.138989
vn 0.9887251 0.05571839 -0.138989
vn 0.8912886 0.1687223 -0.4208768
vn 0.8912886 0.1687223 -0.4208768
vn 0.9536952 0.1119172 -0.2791773
vn 0.9536952 0.1119172 -0.2791773
vn 0.7956302 0.2254099 -0.5622838
vn 0.7956302 0.2254099 -0.5622838
vn 0.8912886 0.1687223 -0.4208768
vn 0.8912886 0.1687223 -0.4208768
vn 0.6596028 0.2796733 -0.6976439
vn 0.6596028 0.2796733 -0.6976439
vn 0.7956302 0.2254099 -0.5622838
vn 0.7956302 0.2254099 -0.5622838
vn 0.4778837 0.3268588 -0.8153468
vn 0.4778837 0.3268588 -0.8153468
vn 0.6596028 0.2796733 -0.6976439
vn 0.6596028 0.2796733 -0.6976439
vn 0.2527659 0.3600144 -0.8980529
vn 0.2527659 0.3600144 -0.8980529
vn 0.4778837 0.3268588 -0.8153468
vn 0.4778837 0.3268588 -0.8153468
vn 0.1282881 0.369022 -0.9205243
vn 0.1282881 0.369022 -0.9205243
vn 0.2527659 0.3600144 -0.8980529
vn 0.2527659 0.3600144 -0.8980529
vn 0.12829 -0.3690219 0.9205241
vn 0.12829 -0.3690219 0.9205241
vn 0.12829 -0.3690219 0.9205241
vn 0.12829 -0.3690219 0.9205241
vn 0.370121 -0.3456723 0.8622767
vn 0.370121 -0.3456723 0.8622767
vn 0.370121 -0.3456723 0.8622767
vn 0.370121 -0.3456723 0.8622767
vn 0.6596032 -0.2796733 0.6976435
vn 0.6596032 -0.2796733 0.6976435
vn 0.5745738 -0.3045436 0.7596829
vn 0.5745738 -0.3045436 0.7596829
vn 0.795631 -0.2254097 0.5622827
vn 0.795631 -0.2254097 0.5622827
vn 0.6596032 -0.2796733 0.6976435
vn 0.6596032 -0.2796733 0.6976435
vn 0.8912886 -0.1687223 0.4208768
vn 0.8912886 -0.1687223 0.4208768
vn 0.795631 -0.2254097 0.5622827
vn 0.795631 -0.2254097 0.5622827
vn 0.9536956 -0.111917 0.2791761
vn 0.9536956 -0.111917 0.2791761
vn 0.8912886 -0.1687223 0.4208768
vn 0.8912886 -0.1687223 0.4208768
vn 0.9887249 -0.05571862 0.1389909
vn 0.9887249 -0.05571862 0.1389909
vn 0.9536956 -0.111917 0.2791761
vn 0.9536956 -0.111917 0.2791761
vn 1 0 0
vn 1 0 0
vn 0.9887249 -0.05571862 0.1389909
vn 0.9887249 -0.05571862 0.1389909
vn 0 -0.9281939 -0.3720969
vn 0 -0.9281939 -0.3720969
vn 0 -0.9281939 -0.3720969
vn 0 -0.9281939 -0.3720969
vn 0 -0.9281939 -0.3720969
vn 0 -0.9281939 -0.3720969
vn 0 -0.9281939 -0.3720969
vn 0 -0.9281939 -0.3720969
vn 0 -0.9281939 -0.3720969
vn 0 -0.9281939 -0.3720969
vn 0 -0.9281939 -0.3720969
vn 0 -0.9281939 -0.3720969
vn 0 -0.9281939 -0.3720969
vn 0 -0.9281939 -0.3720969
vn 0 -0.9281939 -0.3720969
vn 0 -0.9281939 -0.3720969
vn 0 -0.9281939 -0.3720969
vn 0 -0.9281939 -0.3720969
vn 0 -0.9281939 -0.3720969
vn 0 -0.9281939 -0.3720969
vn 0 -0.9281939 -0.3720969
vn 0 -0.9281939 -0.3720969
vn 0 -0.9281939 -0.3720969
vn 0 -0.9281939 -0.3720969
vn 0 -0.9281939 -0.3720969
vn 0 -0.9281939 -0.3720969
vn 0 -0.9281939 -0.3720969
vn 0 -0.9281939 -0.3720969
vn 0 -0.9281939 -0.3720969
vn 0 -0.9281939 -0.3720969
vn 0 -0.9281939 -0.3720969
vn 0 -0.9281939 -0.3720969
vn 0 -0.9281939 -0.3720969
vn 0 -0.9281939 -0.3720969
vn 0 -0.9281939 -0.3720969
vn 0 -0.9281939 -0.3720969
vn 0 -0.9281939 -0.3720969
vn 0 -0.9281939 -0.3720969
vn 0 -0.9281939 -0.3720969
vn 0 -0.9281939 -0.3720969
vn 0 -0.9281939 -0.3720969
vn 0 -0.9281939 -0.3720969
vn 0 -0.9281939 -0.3720969
vn 0 -0.9281939 -0.3720969
vn 0 -0.9281939 -0.3720969
vn 0 -0.9281939 -0.3720969
vn 0 -0.9281939 -0.3720969
vn 0 -0.9281939 -0.3720969
vn 0 -0.9281939 -0.3720969
vn 0 -0.9281939 -0.3720969
vn 0 -0.9281939 -0.3720969
vn 0 -0.9281939 -0.3720969
vn 0 -0.9281939 -0.3720969
vn 0 -0.9281939 -0.3720969
vn 0 -0.9281939 -0.3720969
vn 0 -0.9281939 -0.3720969
vn 0 -0.9281939 -0.3720969
vn 0 -0.9281939 -0.3720969
vn 0 -0.9281939 -0.3720969
vn 0 -0.9281939 -0.3720969
vn 0 -0.9281939 -0.3720969
vn 0 -0.9281939 -0.3720969
vn 0 -0.9281939 -0.3720969
vn 0 -0.9281939 -0.3720969
vn -1 0 0
vn -1 0 0
vn -1 0 0
vn -1 0 0
vn -1 0 0
vn -1 0 0
vn -1 0 0
vn -1 0 0
g L_LowerRPolkaArc_0
f 3/3/3 2/2/2 1/1/1
f 3/3/3 4/4/4 2/2/2
f 7/7/7 6/6/6 5/5/5
f 7/7/7 8/8/8 6/6/6
f 11/11/11 10/10/10 9/9/9
f 11/11/11 12/12/12 10/10/10
f 15/15/15 14/14/14 13/13/13
f 15/15/15 16/16/16 14/14/14
f 19/19/19 18/18/18 17/17/17
f 19/19/19 20/20/20 18/18/18
f 23/23/23 22/22/22 21/21/21
f 23/23/23 24/24/24 22/22/22
f 27/27/27 26/26/26 25/25/25
f 27/27/27 28/28/28 26/26/26
f 31/31/31 30/30/30 29/29/29
f 31/31/31 32/32/32 30/30/30
f 35/35/35 34/34/34 33/33/33
f 35/35/35 36/36/36 34/34/34
f 39/39/39 38/38/38 37/37/37
f 39/39/39 40/40/40 38/38/38
f 43/43/43 42/42/42 41/41/41
f 43/43/43 44/44/44 42/42/42
f 47/47/47 46/46/46 45/45/45
f 47/47/47 48/48/48 46/46/46
f 51/51/51 50/50/50 49/49/49
f 51/51/51 52/52/52 50/50/50
f 55/55/55 54/54/54 53/53/53
f 55/55/55 56/56/56 54/54/54
f 59/59/59 58/58/58 57/57/57
f 59/59/59 60/60/60 58/58/58
f 63/63/63 62/62/62 61/61/61
f 63/63/63 64/64/64 62/62/62
f 67/67/67 66/66/66 65/65/65
f 67/67/67 68/68/68 66/66/66
f 71/71/71 70/70/70 69/69/69
f 71/71/71 72/72/72 70/70/70
f 75/75/75 74/74/74 73/73/73
f 75/75/75 76/76/76 74/74/74
f 79/79/79 78/78/78 77/77/77
f 79/79/79 80/80/80 78/78/78
f 83/83/83 82/82/82 81/81/81
f 83/83/83 84/84/84 82/82/82
f 87/87/87 86/86/86 85/85/85
f 87/87/87 88/88/88 86/86/86
f 91/91/91 90/90/90 89/89/89
f 91/91/91 92/92/92 90/90/90
f 95/95/95 94/94/94 93/93/93
f 95/95/95 96/96/96 94/94/94
f 99/99/99 98/98/98 97/97/97
f 99/99/99 100/100/100 98/98/98
f 103/103/103 102/102/102 101/101/101
f 103/103/103 104/104/104 102/102/102
f 107/107/107 106/106/106 105/105/105
f 107/107/107 108/108/108 106/106/106
f 111/111/111 110/110/110 109/109/109
f 111/111/111 112/112/112 110/110/110
f 115/115/115 114/114/114 113/113/113
f 115/115/115 116/116/116 114/114/114
f 119/119/119 118/118/118 117/117/117
f 119/119/119 120/120/120 118/118/118
f 123/123/123 122/122/122 121/121/121
f 123/123/123 124/124/124 122/122/122
f 127/127/127 126/126/126 125/125/125
f 127/127/127 128/128/128 126/126/126
f 131/131/131 130/130/130 129/129/129
f 131/131/131 132/132/132 130/130/130
f 135/135/135 134/134/134 133/133/133
f 135/135/135 136/136/136 134/134/134
f 139/139/139 138/138/138 137/137/137
f 139/139/139 140/140/140 138/138/138
f 143/143/143 142/142/142 141/141/141
f 143/143/143 144/144/144 142/142/142
f 147/147/147 146/146/146 145/145/145
f 147/147/147 148/148/148 146/146/146
f 151/151/151 150/150/150 149/149/149
f 151/151/151 152/152/152 150/150/150
f 155/155/155 154/154/154 153/153/153
f 155/155/155 156/156/156 154/154/154
f 159/159/159 158/158/158 157/157/157
f 159/159/159 160/160/160 158/158/158
f 163/163/163 162/162/162 161/161/161
f 163/163/163 164/164/164 162/162/162
f 167/167/167 166/166/166 165/165/165
f 167/167/167 168/168/168 166/166/166
f 171/171/171 170/170/170 169/169/169
f 171/171/171 172/172/172 170/170/170
f 175/175/175 174/174/174 173/173/173
f 175/175/175 176/176/176 174/174/174
f 179/179/179 178/178/178 177/177/177
f 179/179/179 180/180/180 178/178/178
f 183/183/183 182/182/182 181/181/181
f 183/183/183 184/184/184 182/182/182
f 187/187/187 186/186/186 185/185/185
f 187/187/187 188/188/188 186/186/186
f 191/191/191 190/190/190 189/189/189
f 191/191/191 192/192/192 190/190/190
f 195/195/195 194/194/194 193/193/193
f 195/195/195 196/196/196 194/194/194
f 199/199/199 198/198/198 197/197/197
f 199/199/199 200/200/200 198/198/198
f 203/203/203 202/202/202 201/201/201
f 203/203/203 204/204/204 202/202/202
f 207/207/207 206/206/206 205/205/205
f 207/207/207 208/208/208 206/206/206
f 211/211/211 210/210/210 209/209/209
f 211/211/211 212/212/212 210/210/210
f 215/215/215 214/214/214 213/213/213
f 215/215/215 216/216/216 214/214/214
f 219/219/219 218/218/218 217/217/217
f 219/219/219 220/220/220 218/218/218
f 223/223/223 222/222/222 221/221/221
f 223/223/223 224/224/224 222/222/222
f 227/227/227 226/226/226 225/225/225
f 227/227/227 228/228/228 226/226/226
f 231/231/231 230/230/230 229/229/229
f 231/231/231 232/232/232 230/230/230
f 235/235/235 234/234/234 233/233/233
f 235/235/235 236/236/236 234/234/234
f 239/239/239 238/238/238 237/237/237
f 239/239/239 240/240/240 238/238/238
f 243/243/243 242/242/242 241/241/241
f 243/243/243 244/244/244 242/242/242
f 247/247/247 246/246/246 245/245/245
f 247/247/247 248/248/248 246/246/246
f 251/251/251 250/250/250 249/249/249
f 251/251/251 252/252/252 250/250/250
f 255/255/255 254/254/254 253/253/253
f 255/255/255 256/256/256 254/254/254
f 259/259/259 258/258/258 257/257/257
f 259/259/259 260/260/260 258/258/258
f 263/263/263 262/262/262 261/261/261
f 263/263/263 264/264/264 262/262/262
