g PointyQuad
v -0.5 0 0.5
v -0.5 0 0
v 0 0.564494 0
v 0 0 0.5
v 0 0 -0.5
v -0.5 0 -0.5
v 0.5 0 0
v 0.5 0 0.5
v 0.5 0 -0.5
vt 0 0
vt 0 0.5
vt 0.5 0.5
vt 0.5 0
vt 0.5 1
vt 0 1
vt 1 0.5
vt 1 0
vt 1 1
vn -0.4411579 0.7815109 0.4411579
vn -0.4915798 0.8708326 0
vn 0 1 0
vn 0 0.8708326 0.4915798
vn 0 0.8708326 -0.4915798
vn -0.4411579 0.7815109 -0.4411579
vn 0.4915798 0.8708326 0
vn 0.4411579 0.7815109 0.4411579
vn 0.4411579 0.7815109 -0.4411579
g PointyQuad_0
f 3/3/3 2/2/2 1/1/1
f 4/4/4 3/3/3 1/1/1
f 3/3/3 5/5/5 2/2/2
f 5/5/5 6/6/6 2/2/2
f 7/7/7 3/3/3 4/4/4
f 3/3/3 7/7/7 5/5/5
f 8/8/8 7/7/7 4/4/4
f 7/7/7 9/9/9 5/5/5
