g R_FaceOfTheThirdEye
v 0 5.4 0
v 0 7 0
v 1.6 7 0
v 1.6 5.4 0
v 0 7 0
v 0 7 -0.09999999
v 1.6 7 -0.09999999
v 1.6 7 0
v 0 5.4 -0.09999999
v 0 5.4 0
v 1.6 5.4 0
v 1.6 5.4 -0.09999999
v 1.6 5.4 0
v 1.6 7 0
v 1.6 7 -0.09999999
v 1.6 5.4 -0.09999999
v 0 5.4 -0.09999999
v 0 7 -0.09999999
v 0 7 0
v 0 5.4 0
vt -2.326512E-05 0.6250181
vt -2.324581E-05 0.75
vt 0.4999273 0.75
vt 0.4999273 0.6250181
vt 2.622604E-05 0.7421875
vt 2.634525E-05 0.7460988
vt 0.4999765 0.7460988
vt 0.4999768 0.7421875
vt -4.157424E-06 0.7204671
vt 0.01560175 0.7204671
vt 0.01560099 0.6545453
vt -4.470348E-06 0.6545453
vt 0.4842385 0.6250123
vt 0.484238 0.75
vt 0.4999768 0.75
vt 0.4999771 0.6250123
vt 7.271767E-06 0.6250238
vt 7.748604E-06 0.7499999
vt 0.01560175 0.75
vt 0.0156014 0.6250238
vn 0 0 1
vn 0 0 1
vn 0 0 1
vn 0 0 1
vn 0 1 0
vn 0 1 0
vn 0 1 0
vn 0 1 0
vn 0 -1 0
vn 0 -1 0
vn 0 -1 0
vn 0 -1 0
vn 1 0 0
vn 1 0 0
vn 1 0 0
vn 1 0 0
vn -1 0 0
vn -1 0 0
vn -1 0 0
vn -1 0 0
g R_FaceOfTheThirdEye_0
f 3/3/3 2/2/2 1/1/1
f 4/4/4 3/3/3 1/1/1
f 7/7/7 6/6/6 5/5/5
f 8/8/8 7/7/7 5/5/5
f 11/11/11 10/10/10 9/9/9
f 12/12/12 11/11/11 9/9/9
f 15/15/15 14/14/14 13/13/13
f 16/16/16 15/15/15 13/13/13
f 19/19/19 18/18/18 17/17/17
f 20/20/20 19/19/19 17/17/17
