g R_FaceOfMadness
v 0 1.8 0
v 0 3.4 0
v 1.6 3.4 0
v 1.6 1.8 0
v 0 3.4 0
v 0 3.4 -0.09999999
v 1.6 3.4 -0.09999999
v 1.6 3.4 0
v 0 1.8 -0.09999999
v 0 1.8 0
v 1.6 1.8 0
v 1.6 1.8 -0.09999999
v 1.6 1.8 0
v 1.6 3.4 0
v 1.6 3.4 -0.09999999
v 1.6 1.8 -0.09999999
v 0 1.8 -0.09999999
v 0 3.4 -0.09999999
v 0 3.4 0
v 0 1.8 0
vt -2.326444E-05 -0.1249819
vt -2.324581E-05 0
vt 0.4999273 0
vt 0.4999273 -0.1249819
vt 2.622604E-05 -0.00781256
vt 2.634525E-05 -0.003901184
vt 0.4999765 -0.003901303
vt 0.4999768 -0.00781256
vt -4.157424E-06 -0.02953297
vt 0.01560175 -0.02953297
vt 0.01560099 -0.09545475
vt -4.470348E-06 -0.09545475
vt 0.4842385 -0.1249877
vt 0.484238 0
vt 0.4999768 0
vt 0.4999771 -0.1249877
vt 7.271767E-06 -0.1249762
vt 7.748604E-06 -5.960464E-08
vt 0.01560175 0
vt 0.0156014 -0.1249762
vn 0 0 1
vn 0 0 1
vn 0 0 1
vn 0 0 1
vn 0 1 0
vn 0 1 0
vn 0 1 0
vn 0 1 0
vn 0 -1 0
vn 0 -1 0
vn 0 -1 0
vn 0 -1 0
vn 1 0 0
vn 1 0 0
vn 1 0 0
vn 1 0 0
vn -1 0 0
vn -1 0 0
vn -1 0 0
vn -1 0 0
g R_FaceOfMadness_0
f 3/3/3 2/2/2 1/1/1
f 4/4/4 3/3/3 1/1/1
f 7/7/7 6/6/6 5/5/5
f 8/8/8 7/7/7 5/5/5
f 11/11/11 10/10/10 9/9/9
f 12/12/12 11/11/11 9/9/9
f 15/15/15 14/14/14 13/13/13
f 16/16/16 15/15/15 13/13/13
f 19/19/19 18/18/18 17/17/17
f 20/20/20 19/19/19 17/17/17
