g R_LowerPolkaPillar
v -4.803149 -1.197081 2.767268
v -1.51839 -1.197081 2.767268
v -4.803149 -0.950344 2.805557
v -1.51839 -0.950344 2.805557
v -4.803149 -0.950344 2.805557
v -1.51839 -0.950344 2.805557
v -4.803149 -0.987792 3.057836
v -1.51839 -0.987792 3.057836
v -4.803149 -0.987792 3.057836
v -1.51839 -0.987792 3.057836
v -4.803149 -1.234529 3.019546
v -1.51839 -1.234529 3.019546
v -4.803149 -1.234529 3.019546
v -1.51839 -1.234529 3.019546
v -4.803149 -1.197081 2.767268
v -1.51839 -1.197081 2.767268
v -1.51839 -1.197081 2.767268
v -1.51839 -1.234529 3.019546
v -1.51839 -0.950344 2.805557
v -1.51839 -0.987792 3.057836
v -4.803149 -0.987792 3.057836
v -4.803149 -1.234529 3.019546
v -4.803149 -0.950344 2.805557
v -4.803149 -1.197081 2.767268
vt 0 -14
vt 0 1
vt 2.25 -14
vt 2.25 1
vt 0 -14
vt 0 1
vt 2.25 -14
vt 2.25 1
vt 0 -14
vt 0 1
vt 2.25 -14
vt 2.25 1
vt 0 -14
vt 0 1
vt 2.25 -14
vt 2.25 1
vt 0 -14
vt 0 1
vt 2.25 -14
vt 2.25 1
vt 2.25 -14
vt 0 -14
vt 2.25 1
vt 0 1
vn 0 0.1533463 -0.9881725
vn 0 0.1533463 -0.9881725
vn 0 0.1533463 -0.9881725
vn 0 0.1533463 -0.9881725
vn 0 0.9891616 0.146831
vn 0 0.9891616 0.146831
vn 0 0.9891616 0.146831
vn 0 0.9891616 0.146831
vn 0 -0.1533463 0.9881725
vn 0 -0.1533463 0.9881725
vn 0 -0.1533463 0.9881725
vn 0 -0.1533463 0.9881725
vn 0 -0.9891616 -0.146831
vn 0 -0.9891616 -0.146831
vn 0 -0.9891616 -0.146831
vn 0 -0.9891616 -0.146831
vn 1 0 0
vn 1 0 0
vn 1 0 0
vn 1 0 0
vn -1 0 0
vn -1 0 0
vn -1 0 0
vn -1 0 0
g R_LowerPolkaPillar_0
f 3/3/3 2/2/2 1/1/1
f 3/3/3 4/4/4 2/2/2
f 7/7/7 6/6/6 5/5/5
f 7/7/7 8/8/8 6/6/6
f 11/11/11 10/10/10 9/9/9
f 11/11/11 12/12/12 10/10/10
f 15/15/15 14/14/14 13/13/13
f 15/15/15 16/16/16 14/14/14
f 19/19/19 18/18/18 17/17/17
f 19/19/19 20/20/20 18/18/18
f 23/23/23 22/22/22 21/21/21
f 23/23/23 24/24/24 22/22/22
