g RDoorFrame
v 0.01 0 0
v 0.01 0.5100001 0
v -0.01 0.5100001 0
v -0.01 0 0
v 0.01 0.5100001 0
v 0.01 0.5100001 0.17
v -0.01 0.5100001 0.17
v -0.01 0.5100001 0
v 0.01 0.5100001 0.17
v 0.01 0 0.17
v -0.01 0 0.17
v -0.01 0.5100001 0.17
v 0.01 0 0.17
v 0.01 0 0
v -0.01 0 0
v -0.01 0 0.17
v -0.01 0 0
v -0.01 0.5100001 0
v -0.01 0.5100001 0.17
v -0.01 0 0.17
v 0.01 0 0.17
v 0.01 0.5100001 0.17
v 0.01 0.5100001 0
v 0.01 0 0
vt 0.28125 0.6015625
vt 0.2812499 0.9999997
vt 0.2968749 0.9999997
vt 0.2968749 0.6015625
vt 0.2578125 0.5859372
vt 0.1328125 0.5859373
vt 0.1328125 0.6015623
vt 0.2578125 0.6015622
vt 0.1484375 0.9999995
vt 0.1484376 0.6015623
vt 0.1328125 0.6015625
vt 0.1328124 0.9999998
vt 0.1328125 0.5859374
vt -4.842877E-08 0.5859375
vt 0 0.6015625
vt 0.1328125 0.6015625
vt 0 0.6015627
vt 0 1
vt 0.1328124 1
vt 0.1328124 0.6015626
vt 0.1484375 0.6015625
vt 0.1484374 0.9999996
vt 0.2812496 0.9999997
vt 0.2812499 0.6015625
vn 0 0 -1
vn 0 0 -1
vn 0 0 -1
vn 0 0 -1
vn 0 1 0
vn 0 1 0
vn 0 1 0
vn 0 1 0
vn 0 0 1
vn 0 0 1
vn 0 0 1
vn 0 0 1
vn 0 -1 0
vn 0 -1 0
vn 0 -1 0
vn 0 -1 0
vn -1 0 0
vn -1 0 0
vn -1 0 0
vn -1 0 0
vn 1 0 0
vn 1 0 0
vn 1 0 0
vn 1 0 0
g RDoorFrame_0
f 3/3/3 2/2/2 1/1/1
f 4/4/4 3/3/3 1/1/1
f 7/7/7 6/6/6 5/5/5
f 8/8/8 7/7/7 5/5/5
f 11/11/11 10/10/10 9/9/9
f 12/12/12 11/11/11 9/9/9
f 15/15/15 14/14/14 13/13/13
f 16/16/16 15/15/15 13/13/13
f 19/19/19 18/18/18 17/17/17
f 20/20/20 19/19/19 17/17/17
f 23/23/23 22/22/22 21/21/21
f 24/24/24 23/23/23 21/21/21
