g Rock
v 0.6899846 1.480908 -56.22776
v 0.2069954 1.455441 -56.51437
v 0.8334368 0.9306105 -56.62682
v 1.033245 0.2326526 -56.98159
v 0.5499239 0 -57.09985
v 0.9309984 0 -56.64753
v -0.6899846 1.636024 -55.96733
v -0.3920933 1.654215 -55.68177
v -0.7924504 1.261145 -55.49772
v -1.022998 0.5112211 -55.20182
v -0.7187732 0 -54.99777
v -1.099848 0 -55.45007
v -1.099848 0 -56.6874
v -0.6874049 0 -57.09985
v -0.997382 0.3748789 -57.01953
v 0.1386446 0 -55.21739
v 0.443733 0.3930694 -55.37703
v 0.5510876 0 -55.62983
v -0.6899846 1.499516 -56.77858
v 0.2069954 1.455441 -56.51437
v -0.6899846 1.636024 -55.96733
v -0.3920933 1.654215 -55.68177
v 0.5015807 1.572278 -55.63634
v 0.6899846 1.480908 -56.22776
v -0.6899846 1.499516 -56.77858
v -0.997382 0.3748789 -57.01953
v 0.2069954 1.455441 -56.51437
v 0.8334368 0.9306105 -56.62682
v 1.033245 0.2326526 -56.98159
v 0.5499239 0 -57.09985
v -0.6874049 0 -57.09985
v -1.099848 0 -55.45007
v -1.099848 0 -56.6874
v -1.022998 0.5112211 -55.20182
v -0.997382 0.3748789 -57.01953
v -0.6899846 1.499516 -56.77858
v -1.022998 0.5112211 -55.20182
v -0.6899846 1.499516 -56.77858
v -0.7924504 1.261145 -55.49772
v -0.7924504 1.261145 -55.49772
v -0.6899846 1.499516 -56.77858
v -0.6899846 1.636024 -55.96733
v -0.7187732 0 -54.99777
v 0.1386446 0 -55.21739
v -1.099848 0 -55.45007
v -1.099848 0 -56.6874
v 0.5510876 0 -55.62983
v -0.6874049 0 -57.09985
v 0.5499239 0 -57.09985
v 0.9309984 0 -56.64753
v 0.5015807 1.572278 -55.63634
v 0.6899846 1.480908 -56.22776
v 0.443733 0.3930694 -55.37703
v 0.8334368 0.9306105 -56.62682
v 1.033245 0.2326526 -56.98159
v 0.9309984 0 -56.64753
v 0.5510876 0 -55.62983
v 0.5015807 1.572278 -55.63634
v 0.443733 0.3930694 -55.37703
v -0.3920933 1.654215 -55.68177
v -0.7924504 1.261145 -55.49772
v -0.7924504 1.261145 -55.49772
v 0.443733 0.3930694 -55.37703
v -1.022998 0.5112211 -55.20182
v -1.022998 0.5112211 -55.20182
v 0.443733 0.3930694 -55.37703
v -0.7187732 0 -54.99777
v 0.1386446 0 -55.21739
vt 0.728581 0.241408
vt 0.504989 0.445915
vt 0.606927 0.587741
vt 0.864066 0.037885
vt 0.5 0.75
vt 0.586617 0.852808
vt 0.2909 0.303308
vt 0.493674 0.328446
vt 0.391355 0.17206
vt 0.377991 0.183706
vt 0.483509 0.000139
vt 0.375 0.875
vt 0.1875 0
vt 0.4375 0.75
vt 0.398062 0.608174
vt 0.504926 0.966713
vt 0.585828 0.156526
vt 0.662764 0.000209
vt 0.421124 0.466347
vt 0.504989 0.445915
vt 0.414417 0.405234
vt 0.493674 0.328446
vt 0.579638 0.312773
vt 0.607376 0.37838
vt 0.421124 0.466347
vt 0.398062 0.608174
vt 0.504989 0.445915
vt 0.606927 0.587741
vt 0.615964 0.66887
vt 0.5 0.75
vt 0.4375 0.75
vt 0.25 0
vt 0.1875 0
vt 0.377991 0.183706
vt 0.149545 0.131249
vt 0.17409 0.262497
vt 0.377991 0.183706
vt 0.17409 0.262497
vt 0.391355 0.17206
vt 0.391355 0.17206
vt 0.17409 0.262497
vt 0.2909 0.303308
vt 0.461617 0.977808
vt 0.504926 0.966713
vt 0.375 0.875
vt 0.375 0.8125
vt 0.567426 0.904213
vt 0.4375 0.75
vt 0.5 0.75
vt 0.586617 0.852808
vt 0.579638 0.312773
vt 0.728581 0.241408
vt 0.585828 0.156526
vt 0.853132 0.075769
vt 0.864066 0.037885
vt 0.733509 0.000139
vt 0.662764 0.000209
vt 0.579638 0.312773
vt 0.585828 0.156526
vt 0.493674 0.328446
vt 0.391355 0.17206
vt 0.391355 0.17206
vt 0.585828 0.156526
vt 0.377991 0.183706
vt 0.377991 0.183706
vt 0.585828 0.156526
vt 0.483509 0.000139
vt 0.537764 0.000209
vn 0.3821939 0.6057148 -0.6978807
vn 0.3821939 0.6057148 -0.6978807
vn 0.3821939 0.6057148 -0.6978807
vn 0.4751413 -0.7835834 -0.4002972
vn 0.4751413 -0.7835834 -0.4002972
vn 0.4751413 -0.7835834 -0.4002972
vn -0.4973001 0.7276912 0.4723961
vn -0.4973001 0.7276912 0.4723961
vn -0.4973001 0.7276912 0.4723961
vn -0.7501998 -0.19416 0.6320618
vn -0.7501998 -0.19416 0.6320618
vn -0.7501998 -0.19416 0.6320618
vn -0.6488498 -0.3974979 -0.6488368
vn -0.6488498 -0.3974979 -0.6488368
vn -0.6488498 -0.3974979 -0.6488368
vn 0.6840788 -0.2531279 0.6840778
vn 0.6840792 -0.2531281 0.6840773
vn 0.6840792 -0.2531281 0.6840773
vn 0.09687403 0.9814983 -0.1651561
vn 0.08863802 0.9829112 -0.161335
vn 0.097135 0.9815409 -0.164749
vn 0.09794999 0.981607 -0.163871
vn 0.08621503 0.9833804 -0.1597811
vn 0.03240799 0.9892626 -0.14251
vn 0.285998 0.125364 -0.9499941
vn 0.121841 0.301818 -0.9455478
vn 0.15123 0.2752799 -0.9493948
vn 0.07014697 0.4111568 -0.9088616
vn 0.04830601 0.4521001 -0.8906583
vn 0.040546 0.366503 -0.929533
vn 0 0.209492 -0.9778103
vn -0.9888891 0.148655 0
vn -0.9736949 0.226194 -0.027469
vn -0.9683694 0.2482671 -0.02498601
vn -0.9640648 0.2635649 -0.03335599
vn -0.9623631 0.269787 -0.032746
vn -0.9683694 0.2482671 -0.02498601
vn -0.9623631 0.269787 -0.032746
vn -0.9597692 0.2796991 -0.02472701
vn -0.9597692 0.2796991 -0.02472701
vn -0.9623631 0.269787 -0.032746
vn -0.9747849 0.220053 -0.037028
vn 0 -1 0
vn 0 -1 0
vn 0 -1 0
vn 0 -1 0
vn 0 -1 0
vn 0 -1 0
vn 0 -1 0
vn 0 -1 0
vn 0.9535027 0.019362 0.3007619
vn 0.9521192 0.02288901 0.304869
vn 0.9449426 0.05030098 0.3233468
vn 0.9434326 0.06969897 0.3241558
vn 0.937588 0.092493 0.335222
vn 0.9383787 0.06796098 0.3388609
vn 0.9364018 0.03092899 0.3495639
vn -0.02981001 0.216068 0.9759232
vn 0.09656602 0.2994671 0.9492073
vn 0.05620501 0.269545 0.9613462
vn 0.132967 0.319772 0.9381181
vn 0.132967 0.319772 0.9381181
vn 0.09656602 0.2994671 0.9492073
vn 0.139385 0.3656001 0.9202763
vn 0.139385 0.3656001 0.9202763
vn 0.09656602 0.2994671 0.9492073
vn 0.149648 0.4207461 0.8947503
vn 0.2432649 0.196918 0.9497607
g Rock_0
f 3/3/3 2/2/2 1/1/1
f 3/3/3 2/2/2 1/1/1
f 6/6/6 5/5/5 4/4/4
f 6/6/6 5/5/5 4/4/4
f 9/9/9 8/8/8 7/7/7
f 9/9/9 8/8/8 7/7/7
f 12/12/12 11/11/11 10/10/10
f 12/12/12 11/11/11 10/10/10
f 15/15/15 14/14/14 13/13/13
f 15/15/15 14/14/14 13/13/13
f 18/18/18 17/17/17 16/16/16
f 18/18/18 17/17/17 16/16/16
f 21/21/21 20/20/20 19/19/19
f 21/21/21 20/20/20 19/19/19
f 22/22/22 20/20/20 21/21/21
f 22/22/22 20/20/20 21/21/21
f 23/23/23 20/20/20 22/22/22
f 23/23/23 20/20/20 22/22/22
f 24/24/24 20/20/20 23/23/23
f 24/24/24 20/20/20 23/23/23
f 27/27/27 26/26/26 25/25/25
f 27/27/27 26/26/26 25/25/25
f 28/28/28 26/26/26 27/27/27
f 28/28/28 26/26/26 27/27/27
f 29/29/29 26/26/26 28/28/28
f 29/29/29 26/26/26 28/28/28
f 30/30/30 26/26/26 29/29/29
f 30/30/30 26/26/26 29/29/29
f 31/31/31 26/26/26 30/30/30
f 31/31/31 26/26/26 30/30/30
f 34/34/34 33/33/33 32/32/32
f 34/34/34 33/33/33 32/32/32
f 34/34/34 35/35/35 33/33/33
f 34/34/34 35/35/35 33/33/33
f 34/34/34 36/36/36 35/35/35
f 34/34/34 36/36/36 35/35/35
f 39/39/39 38/38/38 37/37/37
f 39/39/39 38/38/38 37/37/37
f 42/42/42 41/41/41 40/40/40
f 42/42/42 41/41/41 40/40/40
f 45/45/45 44/44/44 43/43/43
f 45/45/45 44/44/44 43/43/43
f 46/46/46 44/44/44 45/45/45
f 46/46/46 44/44/44 45/45/45
f 46/46/46 47/47/47 44/44/44
f 46/46/46 47/47/47 44/44/44
f 48/48/48 47/47/47 46/46/46
f 48/48/48 47/47/47 46/46/46
f 49/49/49 47/47/47 48/48/48
f 49/49/49 47/47/47 48/48/48
f 47/47/47 49/49/49 50/50/50
f 47/47/47 49/49/49 50/50/50
f 53/53/53 52/52/52 51/51/51
f 53/53/53 52/52/52 51/51/51
f 53/53/53 54/54/54 52/52/52
f 53/53/53 54/54/54 52/52/52
f 53/53/53 55/55/55 54/54/54
f 53/53/53 55/55/55 54/54/54
f 53/53/53 56/56/56 55/55/55
f 53/53/53 56/56/56 55/55/55
f 57/57/57 56/56/56 53/53/53
f 57/57/57 56/56/56 53/53/53
f 60/60/60 59/59/59 58/58/58
f 60/60/60 59/59/59 58/58/58
f 61/61/61 59/59/59 60/60/60
f 61/61/61 59/59/59 60/60/60
f 64/64/64 63/63/63 62/62/62
f 64/64/64 63/63/63 62/62/62
f 67/67/67 66/66/66 65/65/65
f 67/67/67 66/66/66 65/65/65
f 68/68/68 66/66/66 67/67/67
f 68/68/68 66/66/66 67/67/67
